<?xml version="1.0" encoding="UTF-8"?>
<svg version="1.1" xmlns="http://www.w3.org/2000/svg" width="512" height="512">
<path d="M0 0 C1.29668025 -0.00779995 2.59336051 -0.01559991 3.9293341 -0.02363622 C7.50388764 -0.04439204 11.07776855 -0.03424668 14.6523236 -0.01870513 C18.51675005 -0.00734899 22.3810643 -0.02487528 26.24546814 -0.03860474 C33.80579993 -0.0607958 41.36588303 -0.05605466 48.92622442 -0.04154153 C55.0720013 -0.0302338 61.21770866 -0.02872501 67.36349297 -0.03416061 C68.23932907 -0.03492678 69.11516518 -0.03569294 70.01754178 -0.03648233 C71.79696388 -0.03808101 73.57638595 -0.03970207 75.35580801 -0.04134528 C92.02692705 -0.05559046 108.69790844 -0.03922898 125.3690049 -0.01234345 C139.66501238 0.00999814 153.96081685 0.00611052 168.25682068 -0.01693726 C184.87122483 -0.04371029 201.48550847 -0.05422139 218.09993118 -0.03887594 C219.87237575 -0.03728324 221.64482033 -0.03571139 223.41726494 -0.03416061 C224.72527494 -0.03300355 224.72527494 -0.03300355 226.05970939 -0.03182311 C232.19665096 -0.02751091 238.33351592 -0.03478221 244.47044563 -0.04655838 C251.95136597 -0.06059847 259.43202407 -0.05675168 266.91291446 -0.03015466 C270.72782265 -0.0170372 274.54229402 -0.01182829 278.35719872 -0.02840042 C282.49648604 -0.04610945 286.63467579 -0.02492893 290.77392578 0 C291.97431962 -0.01115361 293.17471346 -0.02230722 294.41148287 -0.03379881 C303.27773268 0.06979066 308.70165521 2.35620105 315.57347107 7.82241821 C324.04806803 18.41566442 323.51241733 28.50410943 323.39109802 41.50650024 C323.38968625 43.62617458 323.39048205 45.74585137 323.39331055 47.86552429 C323.39474105 53.59843651 323.36541005 59.33082224 323.33044076 65.06361246 C323.29911648 71.06268528 323.29624172 77.0617711 323.29031372 83.06091309 C323.27479317 94.41151357 323.23378869 105.76187235 323.18356627 117.11236656 C323.12761731 130.03855777 323.1001723 142.96476073 323.0750891 155.89104295 C323.02287143 182.47246854 322.93496374 209.05367981 322.82347107 235.63491821 C323.79566589 235.6073645 324.76786072 235.57981079 325.76951599 235.55142212 C327.03900085 235.52999146 328.30848572 235.50856079 329.61643982 235.48648071 C331.50785706 235.44515015 331.50785706 235.44515015 333.43748474 235.40298462 C336.71556297 235.62752671 337.8966397 235.71763673 340.13597107 238.00991821 C342.94447392 242.37870042 343.01390214 245.66213687 343.06175232 250.75601196 C343.06982407 251.57054337 343.07789581 252.38507477 343.08621216 253.22428894 C343.10006242 254.95513784 343.11078035 256.68601416 343.11863708 258.41690063 C343.13008843 260.1712149 343.15043002 261.92549624 343.18016052 263.67959595 C343.39842863 276.5574145 343.23812678 288.03093151 333.82347107 297.91226196 C327.99750713 302.93032856 321.81311478 305.71870995 314.13426208 305.81192017 C313.20972733 305.8247554 312.28519257 305.83759064 311.3326416 305.85081482 C309.84503578 305.86189522 309.84503578 305.86189522 308.32737732 305.87319946 C307.30168137 305.88127121 306.27598541 305.88934296 305.21920776 305.8976593 C303.05142395 305.91147695 300.8836186 305.92220945 298.71580505 305.93008423 C295.40166745 305.9473365 292.08851753 305.99124856 288.77464294 306.03530884 C286.66722839 306.04543289 284.55980538 306.05394989 282.45237732 306.06069946 C281.46266434 306.07820755 280.47295135 306.09571564 279.45324707 306.11375427 C275.17726464 306.10026947 272.51504753 306.01709518 268.72166443 303.92080688 C266.82347107 301.63491821 266.82347107 301.63491821 265.82347107 296.63491821 C258.89347107 296.63491821 251.96347107 296.63491821 244.82347107 296.63491821 C244.49347107 298.28491821 244.16347107 299.93491821 243.82347107 301.63491821 C240.9570251 304.84539947 239.29108465 305.57616201 234.99526978 306.11593628 C233.48123374 306.12746576 231.96693029 306.11704422 230.45310974 306.08901978 C229.62332611 306.08960388 228.79354248 306.09018799 227.93861389 306.09078979 C225.20579162 306.08801111 222.47407069 306.05692994 219.74143982 306.02554321 C217.84287105 306.01808004 215.94429457 306.01238747 214.04571533 306.00839233 C209.05605183 305.993142 204.06685631 305.95386527 199.07737732 305.90957642 C193.98304067 305.86861081 188.88862818 305.85037856 183.79417419 305.83023071 C173.80370144 305.78737037 163.81369844 305.71702534 153.82347107 305.63491821 C153.82347107 313.88491821 153.82347107 322.13491821 153.82347107 330.63491821 C156.49698669 330.5769104 159.17050232 330.51890259 161.92503357 330.45913696 C164.52640316 330.42009661 167.12773961 330.38976343 169.72923279 330.36026001 C171.53146573 330.33517955 173.33359758 330.30110634 175.13548279 330.25772095 C177.73225384 330.19678071 180.32767572 330.16864475 182.92503357 330.14663696 C184.12538742 330.10792732 184.12538742 330.10792732 185.34999084 330.06843567 C189.44693398 330.06640074 192.0494025 330.38805118 195.31712341 332.97793579 C201.90786089 339.96478519 200.18135365 353.7155451 200.03440857 362.88491821 C199.06198633 392.17763758 185.70210446 417.6665923 165.82347107 438.63491821 C164.59757263 439.94009399 164.59757263 439.94009399 163.34690857 441.27163696 C152.64622102 452.35330875 152.64622102 452.35330875 146.82347107 454.63491821 C141.29009154 454.59737832 138.3909247 451.97640954 134.63597107 448.25991821 C134.07353699 447.71899536 133.51110291 447.17807251 132.93162537 446.62075806 C131.77565179 445.50467933 130.62499595 444.38306656 129.47972107 443.25601196 C127.96793648 441.77631714 126.43363704 440.3268693 124.88597107 438.88491821 C104.66909246 419.58698863 91.34460343 391.95341152 90.60862732 363.82632446 C90.32464945 338.13347797 90.32464945 338.13347797 94.82347107 332.63491821 C98.62251641 329.94167063 102.84851233 330.38124045 107.30784607 330.43960571 C108.12343994 330.44243561 108.93903381 330.4452655 109.77934265 330.44818115 C112.37753635 330.45935263 114.97538202 330.48445146 117.57347107 330.50991821 C119.337789 330.51995194 121.10211234 330.52907711 122.86643982 330.53726196 C127.18569134 330.55757829 131.50419283 330.59673206 135.82347107 330.63491821 C135.82347107 322.38491821 135.82347107 314.13491821 135.82347107 305.63491821 C133.77632401 305.64380066 131.72917694 305.65268311 129.61999512 305.66183472 C110.32996562 305.74361464 91.039959 305.80312049 71.74979496 305.8421669 C61.83247081 305.86277554 51.91527401 305.89086367 41.99803162 305.93667603 C33.35225523 305.97659579 24.70657111 306.00236337 16.06070513 306.01127219 C11.48447682 306.01647824 6.90851242 306.02867888 2.33236885 306.05783844 C-1.97929245 306.08508881 -6.29058238 306.09334386 -10.60232162 306.08734894 C-12.18048054 306.08844489 -13.75865251 306.09634143 -15.33673668 306.11174011 C-27.17958034 306.22158384 -35.52604384 304.77578664 -44.38356018 296.57241821 C-48.92491744 291.66498205 -52.26112625 286.31778212 -52.35353088 279.51821899 C-52.36636612 278.69371246 -52.37920135 277.86920593 -52.39242554 277.01971436 C-52.39981247 276.13218475 -52.4071994 275.24465515 -52.41481018 274.33023071 C-52.42288193 273.41410004 -52.43095367 272.49796936 -52.43927002 271.55407715 C-52.45309767 269.61571133 -52.46382572 267.67732129 -52.47169495 265.73892212 C-52.4889237 262.77800373 -52.53282307 259.81819755 -52.57691956 256.85757446 C-52.5870455 254.97346808 -52.59556191 253.08935222 -52.60231018 251.20523071 C-52.62857231 249.880009 -52.62857231 249.880009 -52.65536499 248.52801514 C-52.64070394 244.36453022 -52.53276673 242.20359979 -50.2749176 238.59927368 C-46.6987032 235.25148764 -44.36771854 235.52520067 -39.55152893 235.57241821 C-38.36301331 235.58144165 -37.17449768 235.59046509 -35.94996643 235.59976196 C-34.57711487 235.61716431 -34.57711487 235.61716431 -33.17652893 235.63491821 C-33.17929431 234.54546937 -33.18205969 233.45602053 -33.18490887 232.33355808 C-33.25152485 205.81771496 -33.30081446 179.3018827 -33.33196545 152.78597355 C-33.34743045 139.96304919 -33.36851307 127.14018013 -33.40284729 114.31729126 C-33.43276074 103.14010517 -33.4521066 91.96295913 -33.45879441 80.78573412 C-33.46270334 74.86817907 -33.47188247 68.9507386 -33.4937191 63.03322029 C-33.51411486 57.46090254 -33.52035642 51.88874634 -33.51585197 46.31639481 C-33.51667579 44.27383101 -33.52262292 42.2312617 -33.53414536 40.18873024 C-33.54913775 37.39346105 -33.54545794 34.59879664 -33.53729248 31.80351257 C-33.546031 31.00095616 -33.55476953 30.19839975 -33.56377286 29.37152344 C-33.49763282 20.95741909 -31.29782527 13.63218518 -25.32232374 7.56603181 C-17.76548792 0.76523783 -9.81676958 -0.09138356 0 0 Z " fill="#050505" transform="translate(112.17652893066406,57.365081787109375)"/>
<path d="M0 0 C1.29668025 -0.00779995 2.59336051 -0.01559991 3.9293341 -0.02363622 C7.50388764 -0.04439204 11.07776855 -0.03424668 14.6523236 -0.01870513 C18.51675005 -0.00734899 22.3810643 -0.02487528 26.24546814 -0.03860474 C33.80579993 -0.0607958 41.36588303 -0.05605466 48.92622442 -0.04154153 C55.0720013 -0.0302338 61.21770866 -0.02872501 67.36349297 -0.03416061 C68.23932907 -0.03492678 69.11516518 -0.03569294 70.01754178 -0.03648233 C71.79696388 -0.03808101 73.57638595 -0.03970207 75.35580801 -0.04134528 C92.02692705 -0.05559046 108.69790844 -0.03922898 125.3690049 -0.01234345 C139.66501238 0.00999814 153.96081685 0.00611052 168.25682068 -0.01693726 C184.87122483 -0.04371029 201.48550847 -0.05422139 218.09993118 -0.03887594 C219.87237575 -0.03728324 221.64482033 -0.03571139 223.41726494 -0.03416061 C224.72527494 -0.03300355 224.72527494 -0.03300355 226.05970939 -0.03182311 C232.19665096 -0.02751091 238.33351592 -0.03478221 244.47044563 -0.04655838 C251.95136597 -0.06059847 259.43202407 -0.05675168 266.91291446 -0.03015466 C270.72782265 -0.0170372 274.54229402 -0.01182829 278.35719872 -0.02840042 C282.49648604 -0.04610945 286.63467579 -0.02492893 290.77392578 0 C291.97431962 -0.01115361 293.17471346 -0.02230722 294.41148287 -0.03379881 C303.27773268 0.06979066 308.70165521 2.35620105 315.57347107 7.82241821 C324.04806803 18.41566442 323.51241733 28.50410943 323.39109802 41.50650024 C323.38968625 43.62617458 323.39048205 45.74585137 323.39331055 47.86552429 C323.39474105 53.59843651 323.36541005 59.33082224 323.33044076 65.06361246 C323.29911648 71.06268528 323.29624172 77.0617711 323.29031372 83.06091309 C323.27479317 94.41151357 323.23378869 105.76187235 323.18356627 117.11236656 C323.12761731 130.03855777 323.1001723 142.96476073 323.0750891 155.89104295 C323.02287143 182.47246854 322.93496374 209.05367981 322.82347107 235.63491821 C323.79566589 235.6073645 324.76786072 235.57981079 325.76951599 235.55142212 C327.03900085 235.52999146 328.30848572 235.50856079 329.61643982 235.48648071 C331.50785706 235.44515015 331.50785706 235.44515015 333.43748474 235.40298462 C336.71556297 235.62752671 337.8966397 235.71763673 340.13597107 238.00991821 C342.94447392 242.37870042 343.01390214 245.66213687 343.06175232 250.75601196 C343.06982407 251.57054337 343.07789581 252.38507477 343.08621216 253.22428894 C343.10006242 254.95513784 343.11078035 256.68601416 343.11863708 258.41690063 C343.13008843 260.1712149 343.15043002 261.92549624 343.18016052 263.67959595 C343.39842863 276.5574145 343.23812678 288.03093151 333.82347107 297.91226196 C327.99750713 302.93032856 321.81311478 305.71870995 314.13426208 305.81192017 C313.20972733 305.8247554 312.28519257 305.83759064 311.3326416 305.85081482 C309.84503578 305.86189522 309.84503578 305.86189522 308.32737732 305.87319946 C307.30168137 305.88127121 306.27598541 305.88934296 305.21920776 305.8976593 C303.05142395 305.91147695 300.8836186 305.92220945 298.71580505 305.93008423 C295.40166745 305.9473365 292.08851753 305.99124856 288.77464294 306.03530884 C286.66722839 306.04543289 284.55980538 306.05394989 282.45237732 306.06069946 C281.46266434 306.07820755 280.47295135 306.09571564 279.45324707 306.11375427 C275.17726464 306.10026947 272.51504753 306.01709518 268.72166443 303.92080688 C266.82347107 301.63491821 266.82347107 301.63491821 265.82347107 296.63491821 C258.89347107 296.63491821 251.96347107 296.63491821 244.82347107 296.63491821 C244.49347107 298.28491821 244.16347107 299.93491821 243.82347107 301.63491821 C240.9570251 304.84539947 239.29108465 305.57616201 234.99526978 306.11593628 C233.48123374 306.12746576 231.96693029 306.11704422 230.45310974 306.08901978 C229.62332611 306.08960388 228.79354248 306.09018799 227.93861389 306.09078979 C225.20579162 306.08801111 222.47407069 306.05692994 219.74143982 306.02554321 C217.84287105 306.01808004 215.94429457 306.01238747 214.04571533 306.00839233 C209.05605183 305.993142 204.06685631 305.95386527 199.07737732 305.90957642 C193.98304067 305.86861081 188.88862818 305.85037856 183.79417419 305.83023071 C173.80370144 305.78737037 163.81369844 305.71702534 153.82347107 305.63491821 C153.82347107 313.88491821 153.82347107 322.13491821 153.82347107 330.63491821 C156.49698669 330.5769104 159.17050232 330.51890259 161.92503357 330.45913696 C164.52640316 330.42009661 167.12773961 330.38976343 169.72923279 330.36026001 C171.53146573 330.33517955 173.33359758 330.30110634 175.13548279 330.25772095 C177.73225384 330.19678071 180.32767572 330.16864475 182.92503357 330.14663696 C184.12538742 330.10792732 184.12538742 330.10792732 185.34999084 330.06843567 C189.44693398 330.06640074 192.0494025 330.38805118 195.31712341 332.97793579 C201.90786089 339.96478519 200.18135365 353.7155451 200.03440857 362.88491821 C199.06198633 392.17763758 185.70210446 417.6665923 165.82347107 438.63491821 C164.59757263 439.94009399 164.59757263 439.94009399 163.34690857 441.27163696 C152.64622102 452.35330875 152.64622102 452.35330875 146.82347107 454.63491821 C141.29009154 454.59737832 138.3909247 451.97640954 134.63597107 448.25991821 C134.07353699 447.71899536 133.51110291 447.17807251 132.93162537 446.62075806 C131.77565179 445.50467933 130.62499595 444.38306656 129.47972107 443.25601196 C127.96793648 441.77631714 126.43363704 440.3268693 124.88597107 438.88491821 C104.66909246 419.58698863 91.34460343 391.95341152 90.60862732 363.82632446 C90.32464945 338.13347797 90.32464945 338.13347797 94.82347107 332.63491821 C98.62251641 329.94167063 102.84851233 330.38124045 107.30784607 330.43960571 C108.12343994 330.44243561 108.93903381 330.4452655 109.77934265 330.44818115 C112.37753635 330.45935263 114.97538202 330.48445146 117.57347107 330.50991821 C119.337789 330.51995194 121.10211234 330.52907711 122.86643982 330.53726196 C127.18569134 330.55757829 131.50419283 330.59673206 135.82347107 330.63491821 C135.82347107 322.38491821 135.82347107 314.13491821 135.82347107 305.63491821 C133.77632401 305.64380066 131.72917694 305.65268311 129.61999512 305.66183472 C110.32996562 305.74361464 91.039959 305.80312049 71.74979496 305.8421669 C61.83247081 305.86277554 51.91527401 305.89086367 41.99803162 305.93667603 C33.35225523 305.97659579 24.70657111 306.00236337 16.06070513 306.01127219 C11.48447682 306.01647824 6.90851242 306.02867888 2.33236885 306.05783844 C-1.97929245 306.08508881 -6.29058238 306.09334386 -10.60232162 306.08734894 C-12.18048054 306.08844489 -13.75865251 306.09634143 -15.33673668 306.11174011 C-27.17958034 306.22158384 -35.52604384 304.77578664 -44.38356018 296.57241821 C-48.92491744 291.66498205 -52.26112625 286.31778212 -52.35353088 279.51821899 C-52.36636612 278.69371246 -52.37920135 277.86920593 -52.39242554 277.01971436 C-52.39981247 276.13218475 -52.4071994 275.24465515 -52.41481018 274.33023071 C-52.42288193 273.41410004 -52.43095367 272.49796936 -52.43927002 271.55407715 C-52.45309767 269.61571133 -52.46382572 267.67732129 -52.47169495 265.73892212 C-52.4889237 262.77800373 -52.53282307 259.81819755 -52.57691956 256.85757446 C-52.5870455 254.97346808 -52.59556191 253.08935222 -52.60231018 251.20523071 C-52.62857231 249.880009 -52.62857231 249.880009 -52.65536499 248.52801514 C-52.64070394 244.36453022 -52.53276673 242.20359979 -50.2749176 238.59927368 C-46.6987032 235.25148764 -44.36771854 235.52520067 -39.55152893 235.57241821 C-38.36301331 235.58144165 -37.17449768 235.59046509 -35.94996643 235.59976196 C-34.57711487 235.61716431 -34.57711487 235.61716431 -33.17652893 235.63491821 C-33.17929431 234.54546937 -33.18205969 233.45602053 -33.18490887 232.33355808 C-33.25152485 205.81771496 -33.30081446 179.3018827 -33.33196545 152.78597355 C-33.34743045 139.96304919 -33.36851307 127.14018013 -33.40284729 114.31729126 C-33.43276074 103.14010517 -33.4521066 91.96295913 -33.45879441 80.78573412 C-33.46270334 74.86817907 -33.47188247 68.9507386 -33.4937191 63.03322029 C-33.51411486 57.46090254 -33.52035642 51.88874634 -33.51585197 46.31639481 C-33.51667579 44.27383101 -33.52262292 42.2312617 -33.53414536 40.18873024 C-33.54913775 37.39346105 -33.54545794 34.59879664 -33.53729248 31.80351257 C-33.546031 31.00095616 -33.55476953 30.19839975 -33.56377286 29.37152344 C-33.49763282 20.95741909 -31.29782527 13.63218518 -25.32232374 7.56603181 C-17.76548792 0.76523783 -9.81676958 -0.09138356 0 0 Z M-14.17652893 21.63491821 C-15.45252772 25.46291458 -15.31101693 29.05597471 -15.29678345 33.04402161 C-15.29763787 33.91229798 -15.2984923 34.78057436 -15.29937261 35.67516214 C-15.30102469 38.59560612 -15.29551046 41.51599315 -15.29005432 44.43643188 C-15.28977237 46.52551777 -15.28993035 48.61460375 -15.29049683 50.70368958 C-15.29078447 56.38515755 -15.28489303 62.06660453 -15.27792287 67.74806762 C-15.27168388 73.68181105 -15.2710851 79.61555494 -15.26989746 85.54930115 C-15.26678576 96.79023392 -15.25857453 108.03115699 -15.24854797 119.27208549 C-15.23738185 132.06755724 -15.23187512 144.86302944 -15.22685254 157.65850484 C-15.21639179 183.98398135 -15.19879545 210.30944924 -15.17652893 236.63491821 C-14.59002186 236.63491821 -14.00351479 236.63491821 -13.39923477 236.63491821 C-11.59796143 236.63491821 -9.79668808 236.6349239 -7.99541473 236.63493347 C-5.85390981 236.63492315 -3.71240489 236.63487112 -1.57089996 236.63478088 C4.36026065 236.63459456 10.29141964 236.63516235 16.22257996 236.63711548 C31.07092253 236.64346027 31.07092253 236.64346027 45.91917419 236.59976196 C51.59285117 236.5732984 57.26512435 236.5811238 62.93870544 236.62271118 C65.09299486 236.63110016 67.24738233 236.6240678 69.40159607 236.60415649 C84.08907852 236.48247241 94.2682731 237.93105654 106.82347107 245.63491821 C109.84033692 246.96245504 112.87188695 248.07292003 116.01097107 249.07241821 C116.76740906 249.31556763 117.52384705 249.55871704 118.3032074 249.80923462 C124.8509652 251.81377785 130.96996711 252.57738618 137.82347107 252.63491821 C139.59566729 252.70634174 141.36779777 252.77940611 143.13987732 252.85366821 C160.02064231 253.39793611 173.31163056 250.60377181 188.12205505 242.49038696 C196.54818647 237.9212001 204.69001361 236.18747477 214.23020935 236.20254517 C215.71006569 236.18725769 215.71006569 236.18725769 217.21981812 236.17166138 C220.44453257 236.14173651 223.668949 236.13229687 226.89378357 236.12319946 C229.14394604 236.10633758 231.39409917 236.08818532 233.64424133 236.06880188 C239.53942447 236.02145989 245.43456975 235.99154838 251.32987976 235.96536255 C257.35646538 235.93547714 263.38292078 235.8889743 269.40940857 235.84390259 C281.21402773 235.75804928 293.01867382 235.69062422 304.82347107 235.63491821 C304.89347793 207.91499809 304.94641838 180.19509116 304.97890759 152.47510052 C304.99439223 139.60492184 305.01551224 126.73479802 305.04978943 113.86465454 C305.0796429 102.65017038 305.09903444 91.43572594 305.10573655 80.22120315 C305.10965569 74.28036543 305.1188993 68.33964134 305.14066124 62.39883995 C305.16096239 56.81176704 305.1673178 51.22485501 305.16279411 45.63774872 C305.16362218 43.58298939 305.16962558 41.52822491 305.18108749 39.47349739 C305.19593192 36.6761265 305.19245423 33.87936947 305.18423462 31.08198547 C305.19297314 30.26195201 305.20171167 29.44191855 305.210715 28.59703559 C305.22491934 24.3733854 305.22491934 24.3733854 303.42592335 20.66947651 C300.33377338 18.67315534 298.39599423 18.50834126 294.72875309 18.50349045 C293.64328507 18.4996493 292.55781704 18.49580816 291.43945605 18.49185061 C290.23724317 18.4927171 289.03503029 18.49358358 287.79638672 18.49447632 C286.52680978 18.4915052 285.25723285 18.48853407 283.94918388 18.48547292 C280.41360093 18.47738467 276.87803827 18.47561234 273.34244716 18.47487545 C269.53393117 18.47302809 265.72542578 18.46548244 261.91691589 18.45874023 C253.58445546 18.44514411 245.25199983 18.43913039 236.91953015 18.43472958 C231.7203284 18.43196969 226.52112852 18.42773284 221.32192802 18.4232254 C206.93680341 18.41103178 192.5516803 18.40073218 178.16655064 18.39735031 C177.24544846 18.39713075 176.32434629 18.39691118 175.37533193 18.39668496 C174.45198569 18.39646668 173.52863944 18.3962484 172.57731301 18.39602351 C170.70615931 18.39558004 168.83500562 18.39513348 166.96385193 18.39468384 C166.03568867 18.39446241 165.10752541 18.39424098 164.15123599 18.39401284 C149.10252716 18.39006253 134.05386669 18.37260186 119.00517655 18.34932432 C103.56799741 18.32563784 88.13084256 18.31314972 72.69364494 18.31198239 C64.02089076 18.31106418 55.34819959 18.30527516 46.67546272 18.28716278 C39.29233321 18.27179832 31.90928619 18.26661966 24.52614374 18.27490088 C20.75667502 18.27882024 16.98737261 18.27781561 13.21792412 18.26384354 C9.13767427 18.24885718 5.05780275 18.25693278 0.97753906 18.26742554 C-0.22244309 18.25936913 -1.42242525 18.25131273 -2.6587705 18.24301219 C-3.74684627 18.24960203 -4.83492205 18.25619188 -5.95596981 18.26298141 C-6.89849069 18.26238433 -7.84101156 18.26178724 -8.81209368 18.26117206 C-11.63740344 18.70776862 -12.48900165 19.36308539 -14.17652893 21.63491821 Z " fill="#030303" transform="translate(112.17652893066406,57.365081787109375)"/>
<path d="M0 0 C1.08286028 -0.00322445 2.16572055 -0.00644889 3.28139478 -0.00977105 C4.48583838 -0.00822245 5.69028198 -0.00667385 6.93122387 -0.00507832 C8.83324929 -0.00847665 8.83324929 -0.00847665 10.77369946 -0.01194364 C14.30961358 -0.01809184 17.84550415 -0.01792451 21.3814224 -0.01674926 C25.18860994 -0.01654601 28.99578976 -0.02205681 32.80297375 -0.02680683 C40.26853426 -0.03513081 47.73408688 -0.03786247 55.19965164 -0.03841921 C61.26605239 -0.03889361 67.33245052 -0.04094454 73.39885044 -0.04411983 C90.5826523 -0.05293171 107.7664479 -0.05753846 124.95025203 -0.05678936 C125.87759136 -0.0567494 126.80493069 -0.05670945 127.76037121 -0.05666828 C128.68883766 -0.0566274 129.61730411 -0.05658652 130.57390591 -0.0565444 C145.62199115 -0.05613793 160.67005137 -0.06570633 175.71812937 -0.07980665 C191.15415153 -0.09415679 206.59016146 -0.10107756 222.02619046 -0.10021287 C230.69841644 -0.0998804 239.3706162 -0.10264942 248.04283619 -0.11339092 C255.42704775 -0.12247811 262.8112212 -0.12468595 270.19543592 -0.1178815 C273.96498609 -0.11460705 277.73446309 -0.11459272 281.50400639 -0.12323475 C285.58608401 -0.13249722 289.66799081 -0.12634776 293.75007153 -0.11860371 C295.54669868 -0.12631905 295.54669868 -0.12631905 297.37962133 -0.13419026 C298.47030485 -0.12959147 299.56098837 -0.12499267 300.6847229 -0.12025452 C301.62740613 -0.12047188 302.57008936 -0.12068925 303.54133874 -0.12091321 C306.18666344 0.14422404 307.80234228 0.69795862 310.03112316 2.12863445 C311.64813423 5.3626566 311.16395217 8.90285675 311.15137768 12.4554472 C311.15265932 13.76270545 311.15265932 13.76270545 311.15396684 15.09637296 C311.15562164 18.03374237 311.15010026 20.97105541 311.14464855 23.90841961 C311.14436665 26.00721008 311.14452446 28.10600065 311.14509106 30.20479107 C311.14537893 35.91730895 311.13948382 41.62980599 311.1325171 47.34231901 C311.12628189 53.30676481 311.12567963 59.27121104 311.12449169 65.2356596 C311.12137887 76.53683279 311.11316614 87.83799634 311.1031422 99.13916528 C311.09197954 112.00232719 311.08647023 124.86548955 311.08144677 137.7286551 C311.07098349 164.19532023 311.053385 190.6619768 311.03112316 217.12863445 C309.78799358 217.13450069 308.54486401 217.14036694 307.26406384 217.14641094 C295.52356917 217.20373308 283.78325803 217.27654437 272.04295063 217.36434937 C266.00777184 217.4089929 259.97265962 217.44826242 253.93737316 217.47507 C248.10820266 217.50116278 242.27928916 217.54160776 236.45027828 217.59182072 C234.2312888 217.608449 232.0122549 217.61998833 229.79321194 217.62624836 C226.67449053 217.6359333 223.5564207 217.66404551 220.43786144 217.69626141 C219.52938961 217.69482632 218.62091778 217.69339123 217.6849165 217.69191265 C208.35252124 217.82740845 200.57553561 220.56253955 192.46862316 225.00363445 C177.16105378 232.87620246 163.74225802 234.95062085 146.55114269 234.23019695 C144.47146818 234.14638136 142.38975638 234.11485593 140.30846691 234.09738445 C133.94594447 233.904337 128.24107662 232.50199179 122.21862316 230.56613445 C121.54404064 230.35134441 120.86945812 230.13655437 120.17443371 229.91525555 C116.49987672 228.64156858 113.24004117 227.25682641 109.90876293 225.21275616 C97.74773414 217.83965516 86.18856838 218.00008852 72.28112316 218.12863445 C70.19256445 218.12050144 68.1040166 218.10878706 66.01549816 218.0934782 C60.71640774 218.06497251 55.4183462 218.07771703 50.11926556 218.10309124 C39.68489405 218.14878582 29.25038125 218.13307759 18.81593609 218.12964153 C13.00322499 218.12802128 7.19051412 218.12838951 1.37780285 218.12863445 C-0.63466867 218.12864415 -2.64714019 218.12864515 -4.6596117 218.12863445 C-5.49516212 218.12863445 -6.33071255 218.12863445 -7.19158268 218.12863445 C-7.77808975 218.12863445 -8.36459682 218.12863445 -8.96887684 218.12863445 C-9.03891475 190.57363972 -9.09183944 163.0186583 -9.12431335 135.46359253 C-9.13979139 122.66969931 -9.16089885 109.87586135 -9.1951952 97.08200359 C-9.22506883 85.93268983 -9.24444502 74.78341609 -9.25114232 63.63406342 C-9.25505802 57.72893203 -9.26428 51.82391513 -9.28606701 45.91882038 C-9.30639991 40.36293048 -9.31271708 34.80720245 -9.30819988 29.25127888 C-9.30902651 27.21026003 -9.31501109 25.16923588 -9.32649326 23.12824917 C-9.34138725 20.3447151 -9.33784167 17.56179472 -9.32964039 14.77824688 C-9.33837891 13.96793005 -9.34711744 13.15761322 -9.35612077 12.32274133 C-9.29622641 4.81797828 -7.71613366 0.0057689 0 0 Z M18.03112316 34.12863445 C13.22845979 40.83148202 10.88574323 46.21002787 10.85412121 54.4582243 C10.84755001 55.20165585 10.84097881 55.94508739 10.83420849 56.71104717 C10.81450213 59.17055648 10.80282 61.63000485 10.79284191 64.08957195 C10.78876638 64.93008728 10.78469086 65.77060261 10.78049183 66.6365881 C10.75964428 71.08380417 10.74533585 75.53098948 10.73595715 79.97824383 C10.7248843 84.57063206 10.69047085 89.16253688 10.65078545 93.75475407 C10.62464258 97.28752831 10.61626749 100.82018681 10.61267567 104.35304928 C10.6078051 106.04593077 10.59617769 107.73880693 10.57763767 109.43159389 C10.55329075 111.80153833 10.55420231 114.17022436 10.56115246 116.54025555 C10.5483424 117.2375729 10.53553234 117.93489025 10.5223341 118.65333843 C10.55952901 122.13738805 10.98716291 124.05809148 12.84565258 127.04040813 C15.85688213 129.91765062 17.9129795 130.12863445 22.03112316 130.12863445 C24.97868048 128.78301046 26.57389588 128.04308901 28.03112316 125.12863445 C28.12717552 122.74444415 28.16429718 120.38874545 28.15709972 118.00436687 C28.15896786 117.27083492 28.16083599 116.53730297 28.16276073 115.78154278 C28.16676852 114.18606894 28.16883992 112.59058934 28.16922283 110.99511051 C28.17263402 107.60327209 28.19399165 104.21162612 28.2144537 100.81985474 C28.25249742 94.50210162 28.28373844 88.18455223 28.28161144 81.86667156 C28.28082436 77.47447813 28.30418719 73.08298637 28.34349346 68.69097614 C28.35395718 67.01769763 28.35547471 65.34433817 28.34784222 63.67104435 C28.33821788 61.32695322 28.35940379 58.98498508 28.38756847 56.64108562 C28.37737179 55.95154797 28.3671751 55.26201031 28.35666943 54.55157757 C28.4364763 50.84176252 28.99022341 49.18240856 31.25969982 46.19855022 C34.21773711 43.98925655 35.39867475 43.50165319 39.01745129 43.49753094 C39.98195202 43.48499783 40.94645275 43.47246471 41.94018078 43.45955181 C42.97050426 43.47281002 44.00082775 43.48606823 45.06237316 43.4997282 C46.13104626 43.49731625 47.19971935 43.49490429 48.30077648 43.49241924 C50.55679573 43.49339731 52.8128391 43.50678109 55.06872082 43.53171062 C58.51925835 43.56601649 61.9672343 43.55236652 65.41784191 43.53293133 C67.61186322 43.53982995 69.80587792 43.54950247 71.99987316 43.5622282 C73.54535839 43.5547884 73.54535839 43.5547884 75.12206554 43.5471983 C79.59906691 43.62070709 82.27675125 43.66775374 86.15807629 46.03903484 C89.33018084 49.57788298 89.20477274 51.97712066 89.34752941 56.66769695 C89.38942394 57.96965008 89.43131847 59.2716032 89.47448254 60.61300945 C89.51429616 61.9932149 89.55400838 63.37342328 89.59362316 64.75363445 C89.63681723 66.1416686 89.68043181 67.52968973 89.72448254 68.91769695 C89.83084316 72.32123702 89.93287031 75.72485223 90.03112316 79.12863445 C88.9367091 79.27043133 87.84229504 79.4122282 86.71471691 79.55832195 C78.54586493 80.82306468 72.40050301 85.80121406 67.41002941 92.2106657 C62.85140183 99.79115973 62.80833636 108.5648288 64.03112316 117.12863445 C66.5139208 126.35893953 73.35451356 132.19429117 81.21862316 137.12863445 C84.33467686 138.23656466 86.74953061 138.20125614 90.03112316 138.12863445 C89.99631847 139.0000407 89.96151379 139.87144695 89.92565441 140.76925945 C89.66015178 152.45137542 92.20443017 162.1952259 96.03112316 173.12863445 C87.56205787 178.77553202 79.49179917 178.7633455 69.71862316 178.62863445 C66.86754157 178.58981825 64.01910193 178.58369242 61.16784191 178.59738445 C59.91704845 178.58127117 58.666255 178.56515789 57.37755871 178.54855633 C53.11049764 179.2882176 51.66084919 180.75443799 49.03112316 184.12863445 C48.19778983 187.62863445 48.19778983 187.62863445 49.03112316 191.12863445 C51.65291683 194.48423706 53.12465565 195.96118847 57.36168957 196.74386883 C59.22833263 196.73323406 59.22833263 196.73323406 61.13268566 196.72238445 C62.1483511 196.72244488 62.1483511 196.72244488 63.18453503 196.72250652 C64.61510036 196.71716223 66.04566601 196.69962536 67.47594738 196.67062664 C69.62940326 196.6291491 71.77968276 196.62953272 73.93346691 196.63644695 C84.18566784 196.58983695 93.55365382 195.35568323 102.71862316 190.44113445 C103.54749035 190.00414227 104.37635754 189.56715008 105.23034191 189.1169157 C105.82459972 188.79078289 106.41885754 188.46465008 107.03112316 188.12863445 C107.74075207 188.78218914 107.74075207 188.78218914 108.46471691 189.44894695 C124.42547003 203.82295853 139.02028295 206.98211605 160.03112316 206.12863445 C163.52342565 205.78970092 166.69051908 205.18740515 170.03112316 204.12863445 C170.83163097 203.88371258 171.63213879 203.6387907 172.45690441 203.38644695 C180.30735515 200.62719055 187.35611855 195.89786995 193.16393566 189.94113445 C195.03112316 188.12863445 195.03112316 188.12863445 198.03112316 187.12863445 C198.03112316 187.78863445 198.03112316 188.44863445 198.03112316 189.12863445 C200.1124142 190.1121347 202.19623675 191.09027903 204.28112316 192.06613445 C205.44127941 192.61140789 206.60143566 193.15668133 207.79674816 193.7184782 C212.10106321 195.59511798 215.4889368 196.25434066 220.17589855 196.30563641 C221.20119167 196.31847164 222.22648479 196.33130688 223.2828474 196.34453106 C224.93908375 196.35561146 224.93908375 196.35561146 226.62877941 196.3669157 C227.77342159 196.37498745 228.91806377 196.3830592 230.09739208 196.39137554 C232.52247134 196.40520544 234.94756997 196.41593248 237.3726759 196.42380047 C239.84083327 196.43529835 242.30896622 196.45571503 244.77697277 196.48532391 C248.35274606 196.52822072 251.92777997 196.54420299 255.50377941 196.5544157 C256.59376736 196.57192379 257.6837553 196.58943188 258.80677319 196.60747051 C269.21209503 196.57840551 277.82648205 194.16293307 285.44518566 186.85519695 C292.22080597 179.47878273 292.32906975 171.34234136 292.32165051 161.82443523 C292.32836773 160.58795238 292.33508495 159.35146954 292.34200573 158.07751751 C292.35771887 154.69720277 292.36435897 151.31713377 292.3656373 147.93679953 C292.36706216 145.8217165 292.37133807 143.70665897 292.37663174 141.5915823 C292.39511501 134.2036886 292.40330441 126.81586691 292.40172863 119.42795086 C292.40052739 112.55573921 292.42163043 105.6838417 292.45321596 98.81170952 C292.47941758 92.89897097 292.49009432 86.98633479 292.48881781 81.07353866 C292.48830935 77.54763373 292.49392767 74.02200824 292.51517391 70.49616146 C292.53824 66.56119176 292.52901158 62.62664892 292.51696301 58.69162273 C292.52820202 57.53291668 292.53944103 56.37421062 292.55102062 55.18039227 C292.47559958 45.47661113 289.87222586 39.12521676 283.03112316 32.12863445 C274.77671792 25.72037576 266.29484892 24.81346234 256.13659191 24.7575407 C255.10858974 24.74851223 254.08058758 24.73948376 253.02143383 24.73018169 C250.85566627 24.71573633 248.68985564 24.70680676 246.52404308 24.70309734 C243.23853406 24.69120651 239.95490841 24.64196686 236.66979504 24.59152508 C234.55456972 24.58205827 232.439333 24.57482447 230.32409191 24.5700407 C229.35602108 24.55050838 228.38795025 24.53097607 227.39054394 24.51085186 C217.03865946 24.5781889 209.01502712 28.44947472 201.78502941 35.7731657 C195.53403925 44.16814803 195.51950138 50.8549483 195.78112316 61.12863445 C195.80122332 62.48928518 195.81946787 63.84996466 195.83581066 65.2106657 C195.88271466 68.51739746 195.94834592 71.82263862 196.03112316 75.12863445 C188.90321665 70.65073837 182.73213115 66.46572304 180.43346691 57.90207195 C180.16386149 56.42055091 179.89564608 54.93877628 179.62877941 53.45675945 C177.62145166 45.63736508 172.95437764 40.37354593 166.17956066 36.28488445 C165.47057629 35.90332195 164.76159191 35.52175945 164.03112316 35.12863445 C163.4420216 34.75351727 162.85292004 34.37840008 162.24596691 33.9919157 C158.95284733 32.7083541 155.70106603 32.80005669 152.21862316 32.81613445 C151.53219738 32.80002117 150.8457716 32.78390789 150.13854504 32.76730633 C141.76330618 32.75938273 135.07841601 36.53966274 129.03112316 42.12863445 C125.32506967 46.40926988 123.79679932 50.63827888 122.59362316 56.12863445 C121.10936936 62.66759702 118.72937463 67.65315536 113.04040051 71.46115398 C111.05123894 72.70881712 109.05083526 73.93117549 107.03112316 75.12863445 C107.07825451 73.99603191 107.07825451 73.99603191 107.12633801 72.84054852 C107.25258552 69.35356008 107.32957477 65.8670542 107.40612316 62.37863445 C107.4563966 61.19140789 107.50667004 60.00418133 107.55846691 58.7809782 C107.71671115 49.12807986 105.52664315 41.4621378 99.22106457 33.98117352 C91.40127587 26.51369847 82.38710574 24.51076081 71.87096691 24.6325407 C70.84105129 24.63108547 69.81113567 24.62963024 68.75001049 24.62813091 C66.58774497 24.62978016 64.42546651 24.64123105 62.2633009 24.66208172 C58.97380753 24.69108874 55.68592462 24.68265814 52.39635754 24.66965008 C50.28371958 24.67588742 48.17108666 24.68427833 46.05846691 24.6950407 C45.08634762 24.69210506 44.11422832 24.68916943 43.11265087 24.68614483 C33.47036436 24.81793281 24.95190208 27.12061883 18.03112316 34.12863445 Z " fill="#CECDD1" transform="translate(105.96887683868408,75.87136554718018)"/>
<path d="M0 0 C3.79839308 1.65147525 5.7664821 3.56427194 8 7 C8.66977709 9.04213669 9.26848622 11.10832405 9.8125 13.1875 C13.19993494 24.60251662 19.51090379 31.45763266 29.125 38.1875 C36.53349573 42.11957177 45.19175183 43.83910199 53.4375 44.875 C59.00485609 45.69372884 62.38691237 47.69703479 66 52 C67.72861773 55.45723546 67.34844539 59.21312183 67 63 C65.42838382 67.16016048 63.00040765 69.07939886 59.09765625 71.17578125 C55.9613722 72.40810143 52.77111231 72.78624766 49.4296875 73.1171875 C45.76603411 74.44835416 43.70296465 76.58221515 42 80 C41.34220784 83.60871072 41.34545864 87.15183367 41.375 90.8125 C41.375 104.2856006 37.67241148 117.10264872 28 127 C16.30604964 137.03058673 4.13973199 140.00679255 -10.98779297 139.18652344 C-21.29221634 138.23134515 -30.50193691 131.98848223 -37.29296875 124.45703125 C-39.39447607 121.72467746 -41.2269598 118.955067 -43 116 C-43.51691406 115.16597656 -44.03382813 114.33195312 -44.56640625 113.47265625 C-48.69439641 105.4636497 -48.58699702 97.19208732 -48.54858398 88.36450195 C-48.53736203 82.36158583 -48.53736203 82.36158583 -50.77734375 76.90234375 C-54.4018336 73.80018811 -57.25799174 72.83161296 -61.9375 72.125 C-66.26183068 71.30980953 -68.90689101 70.2864283 -72 67 C-73.75363037 64.07316621 -74.27329318 61.90080376 -74.25 58.5 C-74.25515625 57.7471875 -74.2603125 56.994375 -74.265625 56.21875 C-73.75164214 51.92548142 -72.25186262 50.21074219 -68.9375 47.4375 C-64.79533745 44.95671299 -60.58075156 44.26472602 -55.875 43.5625 C-42.42667085 41.51841279 -30.81531075 36.7909851 -22.26171875 25.7578125 C-18.39330546 19.90239784 -16.67139196 13.9183858 -15.15234375 7.1015625 C-12.43507901 -0.21202463 -6.96365613 -1.05087902 0 0 Z " fill="#F7F7F7" transform="translate(261,126)"/>
<path d="M0 0 C0.96157516 -0.01606293 1.92315033 -0.03212585 2.91386414 -0.04867554 C7.33075384 -0.09303695 11.74749029 -0.13421618 16.16455078 -0.15722656 C18.49342862 -0.17376528 20.82225614 -0.20102742 23.15087891 -0.23925781 C26.50555816 -0.29407673 29.85904419 -0.31591196 33.21411133 -0.33056641 C34.25182175 -0.35323578 35.28953217 -0.37590515 36.35868835 -0.39926147 C44.44131841 -0.37569149 44.44131841 -0.37569149 48.12548828 2.60058594 C51.69873088 6.52860022 51.60409887 8.48792491 51.58129883 13.73193359 C51.57646484 15.68486328 51.57646484 15.68486328 51.5715332 17.67724609 C51.56317724 19.05745508 51.55471228 20.43766342 51.54614258 21.81787109 C51.54112759 23.20589035 51.53656468 24.59391132 51.5324707 25.98193359 C51.52065234 29.38562241 51.50417692 32.78922548 51.48364258 36.19287109 C50.8176001 36.37245361 50.15155762 36.55203613 49.46533203 36.73706055 C39.8784414 39.44262234 33.41222396 43.6224173 28.35864258 52.39599609 C24.92398943 59.44930166 25.29326125 69.78178514 27.31958008 77.29052734 C30.93918652 85.14920308 37.43172417 91.04212041 45.48364258 94.19287109 C47.47938229 94.55082932 49.47918526 94.88748286 51.48364258 95.19287109 C51.5397168 96.49998047 51.5397168 96.49998047 51.59692383 97.83349609 C52.22794962 109.2661986 54.71567325 119.42724443 58.48364258 130.19287109 C52.14263406 134.61683052 47.98651818 136.43360807 40.20629883 136.43115234 C38.79157566 136.44656877 37.37686192 136.46287216 35.9621582 136.47998047 C33.7523907 136.49642548 31.54331977 136.50536206 29.33349609 136.49829102 C27.18614538 136.49565975 25.04087084 136.52385577 22.89379883 136.55615234 C21.61641846 136.5591333 20.33903809 136.56211426 19.02294922 136.56518555 C14.39252131 137.38637822 12.78709016 138.90741919 9.48364258 142.19287109 C9.15364258 142.85287109 8.82364258 143.51287109 8.48364258 144.19287109 C5.18364258 144.19287109 1.88364258 144.19287109 -1.51635742 144.19287109 C-1.74323242 142.79037109 -1.97010742 141.38787109 -2.20385742 139.94287109 C-3.18922507 135.41301552 -4.63068097 133.8157027 -8.51635742 131.19287109 C-11.50075346 126.7986052 -10.85801469 121.62357728 -10.97729492 116.50537109 C-11.60237882 112.66427584 -12.45377153 111.5092997 -15.51635742 109.19287109 C-16.50635742 108.86287109 -17.49635742 108.53287109 -18.51635742 108.19287109 C-18.66140917 104.75581405 -18.75033757 101.31954076 -18.82885742 97.88037109 C-18.87075195 96.90390625 -18.91264648 95.92744141 -18.95581055 94.92138672 C-19.00158203 92.25748636 -18.99519959 89.81466193 -18.51635742 87.19287109 C-16.05733121 84.96650968 -14.81766467 84.19287109 -11.51635742 84.19287109 C-11.5149324 83.22678421 -11.51350739 82.26069733 -11.51203918 81.26533508 C-11.49536401 72.15736921 -11.45257475 63.04984983 -11.38426685 53.94212055 C-11.34998722 49.25976987 -11.32488538 44.57774578 -11.32080078 39.89526367 C-11.31651988 35.37567145 -11.28807494 30.85681612 -11.24292564 26.33745384 C-11.22994389 24.61394735 -11.22564538 22.89035271 -11.23020363 21.16680336 C-11.23510511 18.75061272 -11.20904134 16.33657957 -11.17578125 13.9206543 C-11.18871971 12.85358246 -11.18871971 12.85358246 -11.20191956 11.76495361 C-11.11133977 7.8355633 -10.61965133 6.31457471 -8.03764343 3.27238464 C-6.78960686 2.24302544 -6.78960686 2.24302544 -5.51635742 1.19287109 C-3.91710385 -0.40638247 -2.21577842 0.03351812 0 0 Z " fill="#F7F7F7" transform="translate(144.516357421875,118.80712890625)"/>
<path d="M0 0 C0.9477832 -0.00630432 1.89556641 -0.01260864 2.87207031 -0.019104 C3.88881836 -0.01505554 4.90556641 -0.01100708 5.953125 -0.00683594 C7.52852051 -0.00970612 7.52852051 -0.00970612 9.13574219 -0.01263428 C11.35482015 -0.01399441 13.57390611 -0.01030997 15.79296875 -0.00195312 C19.19028592 0.00874862 22.58707428 -0.00185443 25.984375 -0.01464844 C28.14062617 -0.01332681 30.29687701 -0.01076436 32.453125 -0.00683594 C33.46987305 -0.0108844 34.48662109 -0.01493286 35.53417969 -0.019104 C36.95585449 -0.00964752 36.95585449 -0.00964752 38.40625 0 C39.23801758 0.00159119 40.06978516 0.00318237 40.92675781 0.00482178 C44.42802938 0.39544788 46.42859585 1.40477558 48.79687595 4.01609516 C50.48087303 6.70174319 50.58226853 8.22492569 50.59080505 11.37571716 C50.60070969 12.40893097 50.61061432 13.44214478 50.62081909 14.50666809 C50.61631744 15.6345726 50.6118158 16.76247711 50.60717773 17.92456055 C50.61404099 19.11680237 50.62090424 20.30904419 50.62797546 21.53741455 C50.64314038 24.80405057 50.64473746 28.07032896 50.63903308 31.33698535 C50.6359419 34.06562484 50.64203291 36.79421271 50.64807183 39.52284485 C50.66211756 45.96099302 50.66055558 52.39900849 50.64916992 58.8371582 C50.63768973 65.4753777 50.65176218 72.11319315 50.6785664 78.7513594 C50.7007305 84.45426 50.70735918 90.15703384 50.70148998 95.85997444 C50.6981207 99.26451515 50.70053308 102.66879689 50.71774101 106.07330132 C50.73259143 109.87038238 50.72201616 113.66657024 50.70483398 117.46362305 C50.71450195 118.58950333 50.72416992 119.71538361 50.73413086 120.87538147 C50.66216727 128.45679905 50.66216727 128.45679905 48.42176819 132.37098694 C44.74114602 135.50275971 42.23999671 136.50502615 37.40966797 136.54931641 C36.46123016 136.56207611 35.51279236 136.57483582 34.53561401 136.58798218 C33.51581451 136.59020782 32.49601501 136.59243347 31.4453125 136.59472656 C29.85796799 136.60471176 29.85796799 136.60471176 28.23855591 136.61489868 C25.9975966 136.62502291 23.75660716 136.62971577 21.515625 136.62939453 C18.11146239 136.63374644 14.70861894 136.6700109 11.3046875 136.70800781 C9.12240024 136.71388048 6.94010685 136.71784686 4.7578125 136.71972656 C3.75015839 136.7340976 2.74250427 136.74846863 1.70431519 136.76327515 C-4.92266604 136.72112132 -11.08808297 135.8673619 -16.796875 132.25878906 C-18.11013794 130.25692749 -18.11013794 130.25692749 -18.796875 128.25878906 C-18.1875 126.06738281 -18.1875 126.06738281 -17.046875 123.69628906 C-13.22874989 114.92874252 -12.49211691 105.71773815 -11.796875 96.25878906 C-11.01183594 95.96746094 -10.22679687 95.67613281 -9.41796875 95.37597656 C1.67922341 91.04602919 7.2562773 86.70617893 12.2890625 75.93457031 C14.68485494 68.9212463 13.98996014 60.19175282 11.3125 53.32128906 C7.16710194 45.61435182 0.78427684 40.33453426 -7.4921875 37.65332031 C-8.29930176 37.39010986 -9.10641602 37.12689941 -9.93798828 36.85571289 C-10.85813721 36.5602356 -10.85813721 36.5602356 -11.796875 36.25878906 C-11.8713139 32.22038336 -11.92561229 28.18224614 -11.96166992 24.14331055 C-11.97670932 22.7708439 -11.99714633 21.39842493 -12.02319336 20.02612305 C-12.05978721 18.0479025 -12.07504198 16.06932393 -12.08984375 14.09082031 C-12.1055542 12.90206299 -12.12126465 11.71330566 -12.13745117 10.48852539 C-11.75836067 6.89355177 -11.02384821 5.08544066 -8.796875 2.25878906 C-5.79210601 0.39587133 -3.50795525 0.00671078 0 0 Z " fill="#F7F7F7" transform="translate(330.796875,118.7412109375)"/>
<path d="M0 0 C36.96 0 73.92 0 112 0 C112 26 112 26 109 32 C103.90943394 35.70365202 98.7196195 35.42559431 92.67578125 35.40625 C91.69256393 35.41708618 90.70934662 35.42792236 89.69633484 35.43908691 C85.50520466 35.48486637 81.3141384 35.49647337 77.12280273 35.51123047 C74.05690243 35.52688371 70.9915253 35.55986307 67.92578125 35.59375 C66.97576736 35.59072876 66.02575348 35.58770752 65.04695129 35.58459473 C64.1656102 35.59470581 63.2842691 35.60481689 62.3762207 35.61523438 C61.6015596 35.61728882 60.8268985 35.61934326 60.02876282 35.62145996 C57.42107455 36.10801975 56.57631215 36.8893185 55 39 C54.67 40.32 54.34 41.64 54 43 C46.41 43 38.82 43 31 43 C30.505 40.03 30.505 40.03 30 37 C26.20123729 35.73374576 22.57578074 35.76701453 18.61328125 35.68359375 C17.38776802 35.6524221 17.38776802 35.6524221 16.13749695 35.62062073 C13.52924966 35.55526921 10.92090225 35.49630727 8.3125 35.4375 C6.54360946 35.39430108 4.77472903 35.35068635 3.00585938 35.30664062 C-1.32932463 35.19960257 -5.66460929 35.09829456 -10 35 C-8.73828693 31.76172508 -7.34731137 28.91218562 -5.5625 25.9375 C-1.82426988 17.97117285 -1.82426988 17.97117285 0 0 Z " fill="#ADABB0" transform="translate(325,311)"/>
<path d="M0 0 C37.29 0 74.58 0 113 0 C113.99 8.415 113.99 8.415 115 17 C116.55777639 21.51755154 118.07479685 25.68063397 120 30 C120.67086296 31.66498202 121.33816108 33.33141034 122 35 C107.3703201 35.09351302 92.74067986 35.16401323 78.11076164 35.20724869 C71.31755446 35.22785884 64.52453317 35.25594947 57.73144531 35.30175781 C51.17624738 35.34594084 44.62117006 35.36913543 38.06583023 35.37950897 C35.56436243 35.38690204 33.06290525 35.40133882 30.56151962 35.42292023 C27.05884678 35.45193973 23.55697286 35.45595645 20.05419922 35.45410156 C19.01913742 35.46848267 17.98407562 35.48286377 16.91764832 35.49768066 C11.15081035 35.46461675 7.39800288 35.13377542 3 31 C0 25 0 25 0 0 Z " fill="#ADAAAF" transform="translate(77,311)"/>
<path d="M0 0 C6.25639273 2.01477054 12.32615903 4.2980582 18.3984375 6.81640625 C28.11137866 10.00840318 37.82204669 10.37277297 47.95947266 10.37060547 C50.23286606 10.37496713 52.50429304 10.41137553 54.77734375 10.44921875 C68.62747787 10.55664528 80.40018623 7.42238357 93.13671875 1.9375 C95.95405048 0.74997953 97.90246597 0 101 0 C99.83479345 10.95294161 96.27620319 19.66208457 87.75 26.9375 C83.75251225 29.93561581 81.80819161 30.13980373 76.84130859 30.20874023 C74.89821304 30.23767616 74.89821304 30.23767616 72.91586304 30.26719666 C71.49339803 30.28200742 70.0709219 30.29578028 68.6484375 30.30859375 C67.93210773 30.31516558 67.21577797 30.3217374 66.47774124 30.32850838 C62.68195826 30.36111418 58.88620339 30.38555546 55.09033203 30.4050293 C51.95710001 30.42280224 48.82477488 30.45755295 45.69189453 30.50756836 C41.90285471 30.56798507 38.11465189 30.59853461 34.32515335 30.60820198 C32.88588347 30.61672617 31.4466341 30.63546942 30.00764084 30.6649456 C22.20969319 30.81600517 16.38266703 30.89714921 10.41160583 25.48445129 C9.71286095 24.7496479 9.71286095 24.7496479 9 24 C8.34386719 23.34515625 7.68773437 22.6903125 7.01171875 22.015625 C2.10765011 15.47686682 -0.65376972 8.28108312 0 0 Z " fill="#AAA8AD" transform="translate(207,316)"/>
<path d="M0 0 C3.10495857 1.83474824 4.64037344 3.20634139 6.1328125 6.5 C7.29182601 11.1778203 7.21395746 15.57814019 7.125 20.375 C7.11597656 21.30183594 7.10695313 22.22867188 7.09765625 23.18359375 C7.07422937 25.45600077 7.04142748 27.7278618 7 30 C7.62575928 30.19625977 8.25151855 30.39251953 8.89624023 30.59472656 C9.71294189 30.85737305 10.52964355 31.12001953 11.37109375 31.390625 C12.18247803 31.64875977 12.9938623 31.90689453 13.82983398 32.17285156 C16 33 16 33 18.0625 34.75 C19.43970569 38.05529366 19.43533606 40.45512069 19 44 C17.20437595 46.75329021 15.94745078 48.52627461 13 50 C10.6670134 50.04022391 8.33293334 50.04320247 6 50 C6.02618408 50.60996826 6.05236816 51.21993652 6.0793457 51.84838867 C6.18365719 54.62782758 6.24842982 57.40685439 6.3125 60.1875 C6.35439453 61.14720703 6.39628906 62.10691406 6.43945312 63.09570312 C6.56319748 70.24812665 6.56319748 70.24812665 3.66796875 74.11328125 C0.57731088 76.29891485 -1.21449863 77 -5 77 C-7.79558447 75.7928158 -9.45569056 74.83740425 -11.12345886 72.27159119 C-12.24734357 69.3589993 -12.26152296 66.96442495 -12.2746582 63.84204102 C-12.28419022 62.59717422 -12.29372223 61.35230743 -12.30354309 60.06971741 C-12.30328165 58.71444673 -12.30234455 57.35917605 -12.30078125 56.00390625 C-12.30467016 54.60912448 -12.30900524 53.21434389 -12.31376648 51.81956482 C-12.32122101 48.89846963 -12.32094304 45.97749532 -12.31567383 43.05639648 C-12.30988017 39.31938782 -12.32681082 35.58287494 -12.3500185 31.84594822 C-12.36477491 28.96596907 -12.36562498 26.08610881 -12.36250877 23.20609856 C-12.36302103 21.82863317 -12.36824088 20.45116097 -12.37832069 19.07373238 C-12.39070327 17.14497813 -12.38194083 15.21612349 -12.37231445 13.28735352 C-12.37325859 11.64332298 -12.37325859 11.64332298 -12.3742218 9.96607971 C-11.94611054 6.5728725 -11.03435108 4.7284407 -9 2 C-5.48746854 -0.34168764 -4.13530644 -0.49623677 0 0 Z " fill="#020202" transform="translate(471,30)"/>
<path d="M0 0 C0.46612295 18.20469081 0.46612295 18.20469081 -2 23 C-4.67483232 24.14594226 -7.2476414 25.09621779 -10 26 C-11.27229715 26.49221552 -12.54067468 26.99469676 -13.8046875 27.5078125 C-24.17737387 31.63821135 -34.66260363 35.3705983 -45.22802734 38.97900391 C-46.29359863 39.34300293 -47.35916992 39.70700195 -48.45703125 40.08203125 C-49.40553955 40.40405518 -50.35404785 40.7260791 -51.33129883 41.05786133 C-53.1086326 41.6853182 -54.8657171 42.37339392 -56.59643555 43.11987305 C-59 44 -59 44 -63 44 C-70 30.48275862 -70 30.48275862 -70 25 C-61.70749041 21.88741404 -53.41475966 18.77541822 -45.12174511 15.66417789 C-41.27107696 14.21952471 -37.42048561 12.7746675 -33.57006836 11.3293457 C-29.85498549 9.93483257 -26.13970275 8.54085319 -22.42428017 7.14724541 C-21.00602381 6.61516812 -19.58783987 6.08289776 -18.16972923 5.55043221 C-16.18520227 4.80532873 -14.20042015 4.06090889 -12.21557617 3.31665039 C-11.08528488 2.89251358 -9.95499359 2.46837677 -8.79045105 2.03138733 C-3.29446836 0 -3.29446836 0 0 0 Z " fill="#81B9F5" transform="translate(294,415)"/>
<path d="M0 0 C3.47190652 2.20332529 4.49136003 3.42939303 6.25 7.0625 C6.64440918 9.82530212 6.64440918 9.82530212 6.66992188 12.85913086 C6.68583374 14.00059067 6.70174561 15.14205048 6.71813965 16.31809998 C6.71834106 17.54215042 6.71854248 18.76620087 6.71875 20.02734375 C6.73017029 21.92644249 6.73017029 21.92644249 6.74182129 23.86390686 C6.75262053 26.53971796 6.75684688 29.21464486 6.75097656 31.89038086 C6.74508123 35.30814905 6.77567326 38.72449626 6.81609344 42.14198971 C6.84825716 45.41624719 6.8438541 48.69045272 6.84375 51.96484375 C6.8683429 53.79788307 6.8683429 53.79788307 6.89343262 55.66795349 C6.8165218 65.128358 6.8165218 65.128358 3.93164062 68.81079102 C0.562546 71.63973855 -1.36147457 72.21923305 -5.75 72.0625 C-8.55189446 70.29608828 -10.26524911 69.03200178 -11.75 66.0625 C-11.83372659 64.54101674 -11.85730027 63.01594222 -11.84765625 61.4921875 C-11.84443359 60.59628906 -11.84121094 59.70039063 -11.83789062 58.77734375 C-11.82951172 57.84019531 -11.82113281 56.90304687 -11.8125 55.9375 C-11.80798828 54.99261719 -11.80347656 54.04773438 -11.79882812 53.07421875 C-11.78702357 50.73691613 -11.77055759 48.39973939 -11.75 46.0625 C-14.73156738 46.15405273 -14.73156738 46.15405273 -17.71313477 46.24560547 C-20.92754113 45.95664409 -22.56579541 44.31289261 -24.75 42.0625 C-26.33939347 38.88371306 -26.16576711 36.5668228 -25.75 33.0625 C-21.61728876 28.42579959 -18.96997132 27.75771677 -12.75 27.0625 C-12.77320313 25.91652344 -12.79640625 24.77054687 -12.8203125 23.58984375 C-12.83908479 22.0599024 -12.85728341 20.52995394 -12.875 19 C-12.90013672 17.87174805 -12.90013672 17.87174805 -12.92578125 16.72070312 C-12.97211433 11.36923275 -13.01332271 5.60649861 -9.26953125 1.3984375 C-5.55844889 -0.69063861 -4.32753403 -1.08188351 0 0 Z " fill="#020202" transform="translate(49.75,232.9375)"/>
<path d="M0 0 C1.68734001 -0.01925285 1.68734001 -0.01925285 3.4087677 -0.03889465 C5.23996407 -0.04997505 5.23996407 -0.04997505 7.1081543 -0.0612793 C8.35864059 -0.06935104 9.60912689 -0.07742279 10.89750671 -0.08573914 C13.54808263 -0.09959 16.19853374 -0.11060341 18.84912109 -0.11816406 C22.23878054 -0.12922017 25.62778197 -0.16361025 29.01720905 -0.20333576 C32.25579215 -0.2358211 35.4944331 -0.24028268 38.7331543 -0.2487793 C40.55524162 -0.27504143 40.55524162 -0.27504143 42.41413879 -0.30183411 C43.54848862 -0.29890854 44.68283844 -0.29598297 45.8515625 -0.29296875 C47.34475761 -0.30176811 47.34475761 -0.30176811 48.86811829 -0.31074524 C52.38289607 0.31224741 54.06092535 1.74164922 56.61987305 4.17700195 C58.04649523 7.03024633 57.93021172 9.01154744 57.61987305 12.17700195 C55.8199353 14.87690857 54.53610005 16.71888845 51.61987305 18.17700195 C49.79834113 18.28829401 47.9727913 18.33623245 46.14794922 18.35400391 C45.00303513 18.36683914 43.85812103 18.37967438 42.67851257 18.39289856 C40.81450554 18.40397896 40.81450554 18.40397896 38.9128418 18.4152832 C37.64015945 18.42335495 36.36747711 18.4314267 35.05622864 18.43974304 C32.35857493 18.45359422 29.66104386 18.46460756 26.96337891 18.47216797 C23.51319055 18.48322464 20.06364856 18.51761531 16.61368847 18.55733967 C13.31763705 18.58982169 10.02152888 18.5942863 6.7253418 18.6027832 C5.48874313 18.62029129 4.25214447 18.63779938 2.97807312 18.65583801 C1.82370255 18.65291245 0.66933197 18.64998688 -0.52001953 18.64697266 C-1.53324783 18.6528389 -2.54647614 18.65870514 -3.59040833 18.66474915 C-7.16430928 18.03989754 -8.82244867 16.70858022 -11.38012695 14.17700195 C-12.50512695 10.80200195 -12.50512695 10.80200195 -12.38012695 7.17700195 C-9.2541147 1.68502748 -6.09916283 0.06046001 0 0 Z " fill="#010101" transform="translate(133.380126953125,18.822998046875)"/>
<path d="M0 0 C1.875 1.125 1.875 1.125 3 3 C3.6875 6.6875 3.6875 6.6875 4 10 C5.5778125 10.061875 5.5778125 10.061875 7.1875 10.125 C11.64650614 11.14837846 11.64650614 11.14837846 14 13.6875 C16 17 16 17 16.0625 20.125 C14.82508373 23.47330284 13.91400575 24.92952223 11 27 C7.25 27.75 7.25 27.75 4 28 C4.12375 29.3303125 4.12375 29.3303125 4.25 30.6875 C3.93702206 34.83445768 3.08161282 36.23445003 0 39 C-3.4375 40.0625 -3.4375 40.0625 -7 40 C-9.80189446 38.23358828 -11.51524911 36.96950178 -13 34 C-13.039992 32.00039988 -13.04346799 29.99952758 -13 28 C-14.2375 27.938125 -15.475 27.87625 -16.75 27.8125 C-20.01761454 27.38881286 -20.9158496 27.06978326 -23.5625 24.875 C-25.47474365 21.05051271 -25.18438801 19.07133377 -24 15 C-21.65081114 11.56657012 -20.37676065 11.07535213 -16.25 10.25 C-14.64125 10.12625 -14.64125 10.12625 -13 10 C-12.938125 8.9275 -12.87625 7.855 -12.8125 6.75 C-12 3 -12 3 -9.875 0.5 C-6.08386986 -1.47798094 -4.07202027 -1.13111674 0 0 Z " fill="#020202" transform="translate(347,2)"/>
<path d="M0 0 C2.4375 1.625 2.4375 1.625 4 4 C4.25 7.75 4.25 7.75 4 11 C5.0725 10.9175 6.145 10.835 7.25 10.75 C11 11 11 11 13.375 12.625 C15.38506043 15.56278062 15.92733979 17.4396496 16 21 C14.75038302 23.89384986 13.70803472 25.5043757 11.125 27.3125 C8.65169514 28.11268687 6.58383294 28.14354627 4 28 C4.103125 29.051875 4.20625 30.10375 4.3125 31.1875 C4 35 4 35 1.875 37.9375 C-1 40 -1 40 -4 40.5625 C-7.84209775 39.84210667 -9.41773756 38.95115708 -12 36 C-12.7094525 33.26652123 -12.85759646 30.84807084 -13 28 C-14.0725 27.9175 -15.145 27.835 -16.25 27.75 C-20 27 -20 27 -22.4375 25.375 C-24.64220216 22.02385272 -24.55263296 19.93750984 -24 16 C-22.5 13.125 -22.5 13.125 -20 11 C-17.26604588 10.29564159 -14.84729307 10.14236465 -12 10 C-12.103125 8.9275 -12.20625 7.855 -12.3125 6.75 C-12 3 -12 3 -9.9375 0.5 C-6.0725552 -1.47358883 -4.13162753 -1.20192801 0 0 Z " fill="#020202" transform="translate(231,2)"/>
<path d="M0 0 C4.0743356 0.84881992 5.54405875 2.30225596 8 5.625 C8.3125 8.9375 8.3125 8.9375 8 11.625 C8.886875 11.563125 9.77375 11.50125 10.6875 11.4375 C14.37829746 11.64641306 16.06364264 12.44370596 19 14.625 C20.56935594 17.76371188 20.35201103 20.16355822 20 23.625 C17.9375 26.5625 17.9375 26.5625 15 28.625 C11.1875 28.9375 11.1875 28.9375 8 28.625 C8.103125 29.676875 8.20625 30.72875 8.3125 31.8125 C8 35.625 8 35.625 5.875 38.5625 C3 40.625 3 40.625 0 41.25 C-4.10703441 40.39436783 -5.55401113 39.00621991 -8 35.625 C-8.3125 31.8125 -8.3125 31.8125 -8 28.625 C-9.5778125 28.7796875 -9.5778125 28.7796875 -11.1875 28.9375 C-15 28.625 -15 28.625 -17.9375 26.5 C-20 23.625 -20 23.625 -20.5625 20.625 C-19.87642343 16.96592496 -18.57265686 15.27332324 -16 12.625 C-13.29120665 11.27060332 -10.99066732 11.55998549 -8 11.625 C-8.103125 10.738125 -8.20625 9.85125 -8.3125 8.9375 C-8 5.625 -8 5.625 -5.875 2.75 C-3 0.625 -3 0.625 0 0 Z " fill="#020202" transform="translate(169,377.375)"/>
<path d="M0 0 C3.4375 1.8125 3.4375 1.8125 4.875 3.75 C5.4375 5.8125 5.4375 5.8125 5.4375 9.8125 C6.530625 9.915625 7.62375 10.01875 8.75 10.125 C12.4375 10.8125 12.4375 10.8125 14.3125 12 C15.96011692 14.65449392 16.31283099 16.69577487 16.4375 19.8125 C15.17255015 22.74185754 14.14354943 24.33420845 11.5 26.125 C9.4375 26.8125 9.4375 26.8125 5.4375 26.8125 C5.334375 27.72 5.23125 28.6275 5.125 29.5625 C4.41175515 32.93420291 3.94334347 34.47947333 1.4375 36.8125 C-2.22128362 38.00558162 -3.86247692 38.13917744 -7.375 36.5 C-9.5625 34.8125 -9.5625 34.8125 -10.5625 32.8125 C-10.602492 30.81289988 -10.60596799 28.81202758 -10.5625 26.8125 C-11.635 26.73 -12.7075 26.6475 -13.8125 26.5625 C-17.90109877 25.74478025 -19.15797153 25.14184711 -21.5625 21.8125 C-22.5625 19.4375 -22.5625 19.4375 -22.5625 16.8125 C-19.46916667 11.26583333 -19.46916667 11.26583333 -16.5625 9.8125 C-14.56289988 9.772508 -12.56202758 9.76903201 -10.5625 9.8125 C-10.645 8.905 -10.7275 7.9975 -10.8125 7.0625 C-10.5625 3.8125 -10.5625 3.8125 -8.75 1.5 C-5.31658867 -1.1486316 -4.18293585 -1.39431195 0 0 Z " fill="#020202" transform="translate(349.5625,388.1875)"/>
<path d="M0 0 C3.5 1 3.5 1 6 3.125 C8.02273337 7.00190563 7.74245874 8.83410892 6.5 13 C3.05332789 18.38542517 -1.35969876 22.03711682 -7.5 24 C-15.70882959 24.88070439 -24.14729465 25.14425211 -31.5 21 C-39.27659574 14.41276596 -39.27659574 14.41276596 -39.8125 8.625 C-39.5 5 -39.5 5 -38 2.5625 C-35.17988615 0.79992885 -32.9760648 0.32486352 -29.6484375 0.4609375 C-26.24751696 1.31425938 -24.03927289 3.45249383 -21.375 5.6484375 C-19.44687004 7.23503975 -19.44687004 7.23503975 -16.375 7.625 C-11.92583447 6.6577901 -8.84954801 4.2624804 -5.5625 1.1875 C-3.5 0 -3.5 0 0 0 Z " fill="#080808" transform="translate(273.5,214)"/>
<path d="M0 0 C-0.66 6.93 -1.32 13.86 -2 21 C-3.32 21 -4.64 21 -6 21 C-6 21.99 -6 22.98 -6 24 C-9.41247084 25.34425253 -12.83060439 26.67347169 -16.25 28 C-17.21808594 28.3815625 -18.18617188 28.763125 -19.18359375 29.15625 C-20.11816406 29.5171875 -21.05273438 29.878125 -22.015625 30.25 C-22.87446289 30.58515625 -23.73330078 30.9203125 -24.61816406 31.265625 C-27 32 -27 32 -31 32 C-38 18.48275862 -38 18.48275862 -38 13 C-33.23440359 11.14003232 -28.46551084 9.28888515 -23.69335938 7.44580078 C-22.07067956 6.81767712 -20.44892395 6.18716042 -18.828125 5.55419922 C-16.49718706 4.64439072 -14.16305232 3.74326243 -11.828125 2.84375 C-11.10506165 2.55939087 -10.38199829 2.27503174 -9.63702393 1.98205566 C-6.1678699 0.65502543 -3.76744824 0 0 0 Z " fill="#A9D1FA" transform="translate(262,427)"/>
<path d="M0 0 C3.6875 0.4375 3.6875 0.4375 6.5625 2.0625 C9.46687538 6.67533149 9.29367535 10.69057235 9.3515625 16.0625 C9.71941255 19.75810976 10.44344516 21.51312084 12.6875 24.4375 C13.3990625 24.9325 14.110625 25.4275 14.84375 25.9375 C16.6875 27.4375 16.6875 27.4375 17.21875 29.8125 C17.2084375 30.67875 17.198125 31.545 17.1875 32.4375 C17.1978125 33.30375 17.208125 34.17 17.21875 35.0625 C16.6875 37.4375 16.6875 37.4375 14.890625 39.2109375 C11.45947978 41.12118502 8.42679927 41.34687587 4.6875 40.4375 C-1.71738013 36.96966435 -4.98321583 31.44071496 -7.46875 24.7734375 C-9.11237898 18.2750155 -10.00286029 10.78535246 -6.90625 4.65234375 C-3.93224628 0.51935328 -3.93224628 0.51935328 0 0 Z " fill="#060606" transform="translate(125.3125,226.5625)"/>
<path d="M0 0 C-3.59962762 9.82507056 -10.93907 17.48809819 -18 25 C-18.58265625 25.65871094 -19.1653125 26.31742187 -19.765625 26.99609375 C-21.3125 28.6875 -21.3125 28.6875 -24 31 C-30.74124539 30.3406766 -35.79663963 23.31146737 -39.93359375 18.515625 C-41 17 -41 17 -41 15 C-39.37427761 14.3903541 -37.74855035 13.7807212 -36.12280273 13.17114258 C-34.69254688 12.63473495 -33.26237273 12.0981094 -31.83227539 11.5612793 C-28.09707307 10.1595072 -24.36069197 8.76110013 -20.62109375 7.37109375 C-19.91919922 7.1095752 -19.21730469 6.84805664 -18.49414062 6.57861328 C-17.16131655 6.08212682 -15.8280118 5.58692811 -14.49414062 5.09326172 C-11.34267613 3.91762416 -8.23712536 2.68037322 -5.16015625 1.32421875 C-2 0 -2 0 0 0 Z " fill="#80B9F6" transform="translate(283,459)"/>
<path d="M0 0 C14.52 0 29.04 0 44 0 C42.68045766 2.63908467 41.67047357 2.65587444 38.9140625 3.5859375 C38.07085449 3.8749292 37.22764648 4.1639209 36.35888672 4.46166992 C35.4567041 4.76306885 34.55452148 5.06446777 33.625 5.375 C31.78632259 6.00350928 29.94777975 6.63241238 28.109375 7.26171875 C27.22314453 7.56255371 26.33691406 7.86338867 25.42382812 8.17333984 C18.1856637 10.64195636 11.05659693 13.32845568 3.99609375 16.265625 C2 17 2 17 0 17 C0 11.39 0 5.78 0 0 Z " fill="#ADCFF6" transform="translate(221,406)"/>
<path d="M0 0 C1.04800781 -0.02223633 1.04800781 -0.02223633 2.1171875 -0.04492188 C6.02563513 0.01776078 7.86548781 0.58209071 10.9609375 3.0078125 C13 5.6875 13 5.6875 13.625 9.25 C13 12.6875 13 12.6875 10.96484375 14.87109375 C7.24717454 17.14871718 4.16725538 17.28054686 -0.0625 17.1875 C-0.76955078 17.20296875 -1.47660156 17.2184375 -2.20507812 17.234375 C-5.67564166 17.20830504 -7.63980012 16.96199316 -10.4296875 14.8359375 C-12.5309909 11.96101991 -13.07151372 10.26318595 -13 6.6875 C-9.42885732 1.06973754 -6.72398933 -0.26672651 0 0 Z " fill="#060606" transform="translate(280,175.3125)"/>
<path d="M0 0 C1.2890625 -0.0103125 2.578125 -0.020625 3.90625 -0.03125 C7.9948208 0.57314742 9.64927591 1.55869216 12.5 4.5 C13.48874457 7.66398262 13.78307319 9.57357864 12.8125 12.75 C11.14759056 14.96987926 10.11409167 15.51179733 7.5 16.5 C4.78381159 16.74332521 2.21431828 16.87008276 -0.5 16.875 C-1.56734375 16.91173828 -1.56734375 16.91173828 -2.65625 16.94921875 C-6.11386327 16.96857106 -8.1275192 16.76799728 -10.96484375 14.7265625 C-12.56970625 12.39889933 -13.06795257 11.29171598 -13.0625 8.5 C-13.08441406 7.84 -13.10632813 7.18 -13.12890625 6.5 C-11.1952156 0.35062351 -5.60359921 -0.04482879 0 0 Z " fill="#080808" transform="translate(234.5,175.5)"/>
<path d="M0 0 C-2.88799304 7.98110392 -8.48224698 14.6462238 -14 21 C-14.33 20.01 -14.66 19.02 -15 18 C-14.34 17.01 -13.68 16.02 -13 15 C-12.34 15 -11.68 15 -11 15 C-11 13.02 -11 11.04 -11 9 C-14.96 9.99 -18.92 10.98 -23 12 C-23 12.33 -23 12.66 -23 13 C-24.0725 13.0825 -25.145 13.165 -26.25 13.25 C-30.31407952 14.0628159 -31.53072559 14.77094885 -34 18 C-34.33 18.99 -34.66 19.98 -35 21 C-34.34 21 -33.68 21 -33 21 C-32.67 21.66 -32.34 22.32 -32 23 C-31.34 23 -30.68 23 -30 23 C-29.67 24.32 -29.34 25.64 -29 27 C-27.68 27 -26.36 27 -25 27 C-24.34 27 -23.68 27 -23 27 C-22.67 26.34 -22.34 25.68 -22 25 C-21.67 25.99 -21.34 26.98 -21 28 C-22.25 29.5625 -22.25 29.5625 -24 31 C-30.81991832 30.11593651 -35.69763544 23.42623986 -39.93359375 18.515625 C-41 17 -41 17 -41 15 C-39.37427761 14.3903541 -37.74855035 13.7807212 -36.12280273 13.17114258 C-34.69254688 12.63473495 -33.26237273 12.0981094 -31.83227539 11.5612793 C-28.09707307 10.1595072 -24.36069197 8.76110013 -20.62109375 7.37109375 C-19.91919922 7.1095752 -19.21730469 6.84805664 -18.49414062 6.57861328 C-17.16131655 6.08212682 -15.8280118 5.58692811 -14.49414062 5.09326172 C-11.34267613 3.91762416 -8.23712536 2.68037322 -5.16015625 1.32421875 C-2 0 -2 0 0 0 Z " fill="#85AEDE" transform="translate(283,459)"/>
<path d="M0 0 C-1.23181341 11.57904607 -5.38395513 20.04672782 -14 28 C-14.99 27.67 -15.98 27.34 -17 27 C-16.34 26.67 -15.68 26.34 -15 26 C-15 25.34 -15 24.68 -15 24 C-14.34 24 -13.68 24 -13 24 C-12.97421875 23.37351562 -12.9484375 22.74703125 -12.921875 22.1015625 C-12.86515625 21.28429687 -12.8084375 20.46703125 -12.75 19.625 C-12.70359375 18.81289063 -12.6571875 18.00078125 -12.609375 17.1640625 C-12 15 -12 15 -10.015625 13.7734375 C-9.35046875 13.51820313 -8.6853125 13.26296875 -8 13 C-6.84188612 11.94729537 -6.84188612 11.94729537 -6 10 C-5.34 10 -4.68 10 -4 10 C-4.25561323 7.6568787 -4.59270772 5.32156597 -5 3 C-5.66 2.67 -6.32 2.34 -7 2 C-4.35261084 0.5393715 -3.10551666 0 0 0 Z " fill="#A8A6AB" transform="translate(308,316)"/>
<path d="M0 0 C0.99 0 1.98 0 3 0 C3.47627265 18.6010929 3.47627265 18.6010929 1 23 C-1.53840415 24.68295077 -4.04239456 25.37499659 -7 26 C-8.33360434 26.33224745 -9.66701903 26.66526038 -11 27 C-11 25.68 -11 24.36 -11 23 C-8.36 23 -5.72 23 -3 23 C-3 22.34 -3 21.68 -3 21 C-2.34 21 -1.68 21 -1 21 C-1.01160156 20.07058594 -1.02320313 19.14117187 -1.03515625 18.18359375 C-1.12478032 5.90509666 -1.12478032 5.90509666 0 0 Z " fill="#86A9D3" transform="translate(291,415)"/>
<path d="M0 0 C-0.639375 0.763125 -1.27875 1.52625 -1.9375 2.3125 C-4.14232781 4.88246713 -4.14232781 4.88246713 -5 8 C-4.34 8 -3.68 8 -3 8 C-2.67 8.66 -2.34 9.32 -2 10 C-1.34 10 -0.68 10 0 10 C0.33 11.32 0.66 12.64 1 14 C2.32 14 3.64 14 5 14 C5.66 14 6.32 14 7 14 C7.33 13.34 7.66 12.68 8 12 C8.33 12.99 8.66 13.98 9 15 C7.75 16.5625 7.75 16.5625 6 18 C-0.81991832 17.11593651 -5.69763544 10.42623986 -9.93359375 5.515625 C-11 4 -11 4 -11 2 C-7.17010894 0.19769832 -4.21878192 -0.19622241 0 0 Z " fill="#97BEEE" transform="translate(253,472)"/>
<path d="M0 0 C0.33 0 0.66 0 1 0 C1.3125 2.25 1.3125 2.25 1 5 C-0.62935241 6.37868281 -2.29749607 7.71274093 -4 9 C-4.86965506 11.12946603 -4.86965506 11.12946603 -5 13 C-5.66 12.67 -6.32 12.34 -7 12 C-7 12.66 -7 13.32 -7 14 C-7.66 14 -8.32 14 -9 14 C-9 14.66 -9 15.32 -9 16 C-9.66 16 -10.32 16 -11 16 C-11 16.66 -11 17.32 -11 18 C-11.66 18 -12.32 18 -13 18 C-13.33 18.99 -13.66 19.98 -14 21 C-16.475 20.01 -16.475 20.01 -19 19 C-18.27941406 18.44183594 -17.55882812 17.88367188 -16.81640625 17.30859375 C-14.02449368 15.02007734 -11.48541508 12.61829117 -8.9375 10.0625 C-8.10089844 9.22847656 -7.26429688 8.39445312 -6.40234375 7.53515625 C-3.94996754 5.01929215 -3.94996754 5.01929215 -1.75390625 2.18359375 C-1.17511719 1.46300781 -0.59632813 0.74242187 0 0 Z " fill="#0E1729" transform="translate(275,472)"/>
<path d="M0 0 C-1 2 -1 2 -3.94140625 3.0703125 C-5.13636719 3.41835938 -6.33132813 3.76640625 -7.5625 4.125 C-8.76003906 4.47820312 -9.95757812 4.83140625 -11.19140625 5.1953125 C-12.11824219 5.46085937 -13.04507813 5.72640625 -14 6 C-14.37616455 5.5155542 -14.7523291 5.0311084 -15.13989258 4.53198242 C-17.69997437 2.42350188 -19.4719952 2.57177677 -22.76171875 2.48828125 C-24.43911133 2.43510742 -24.43911133 2.43510742 -26.15039062 2.38085938 C-27.31763672 2.35830078 -28.48488281 2.33574219 -29.6875 2.3125 C-31.45577148 2.26125977 -31.45577148 2.26125977 -33.25976562 2.20898438 C-36.17308225 2.12642075 -39.08609466 2.05729678 -42 2 C-42 1.67 -42 1.34 -42 1 C-37.46514285 0.85578057 -32.93023182 0.71343984 -28.39526367 0.57275391 C-26.85618543 0.52475335 -25.31712243 0.47626135 -23.77807617 0.42724609 C-15.85091889 0.17510023 -7.9323857 -0.07219464 0 0 Z " fill="#B0C9EA" transform="translate(265,406)"/>
<path d="M0 0 C-1.0625 1.4375 -1.0625 1.4375 -3 3 C-5.33157492 3.34541851 -7.66508361 3.67794257 -10 4 C-10.763125 4.474375 -11.52625 4.94875 -12.3125 5.4375 C-16.28248755 7.7456323 -20.50745781 8.25851245 -25 9 C-25.33 9.99 -25.66 10.98 -26 12 C-28.64 11.67 -31.28 11.34 -34 11 C-28.97822526 8.35724069 -23.63425193 6.50547814 -18.32739258 4.52172852 C-17.06412131 4.04765501 -15.80239747 3.56943809 -14.54223633 3.0871582 C-12.7177746 2.38894845 -10.88824033 1.70403899 -9.05859375 1.01953125 C-7.42361938 0.40235229 -7.42361938 0.40235229 -5.75561523 -0.22729492 C-3 -1 -3 -1 0 0 Z " fill="#151F2D" transform="translate(265,449)"/>
<path d="M0 0 C-0.99 0.495 -0.99 0.495 -2 1 C-1.67 5.95 -1.34 10.9 -1 16 C-1.66 16.33 -2.32 16.66 -3 17 C-3.8394882 14.89828133 -4.67139656 12.79353375 -5.5 10.6875 C-5.9640625 9.51574219 -6.428125 8.34398437 -6.90625 7.13671875 C-8 4 -8 4 -8 1 C-3.375 -1.125 -3.375 -1.125 0 0 Z " fill="#A6BFDD" transform="translate(232,439)"/>
<path d="M0 0 C1.46067199 0.45082469 2.91848032 0.91093537 4.375 1.375 C5.18710938 1.63023437 5.99921875 1.88546875 6.8359375 2.1484375 C9 3 9 3 11 5 C10.01 5.33 9.02 5.66 8 6 C6.65729179 7.99371825 5.32346506 9.9934562 4 12 C3.34 12 2.68 12 2 12 C0.40861915 7.82262526 -0.21278058 4.46839215 0 0 Z " fill="#A7A5A9" transform="translate(207,316)"/>
<path d="M0 0 C0.66 0.66 1.32 1.32 2 2 C1.443125 2.94875 0.88625 3.8975 0.3125 4.875 C-2.32668355 9.48174691 -4.66101274 14.23575137 -7 19 C-7.66 19 -8.32 19 -9 19 C-9.33 19.99 -9.66 20.98 -10 22 C-9.85831863 20.56208484 -9.71148957 19.1246763 -9.5625 17.6875 C-9.48128906 16.88699219 -9.40007812 16.08648437 -9.31640625 15.26171875 C-9 13 -9 13 -8 10 C-7.34 10 -6.68 10 -6 10 C-6 9.34 -6 8.68 -6 8 C-5.34 8 -4.68 8 -4 8 C-3.67 6.35 -3.34 4.7 -3 3 C-2.34 3 -1.68 3 -1 3 C-0.67 2.01 -0.34 1.02 0 0 Z " fill="#C8C7CB" transform="translate(125,104)"/>
<path d="M0 0 C2.38564077 0.57584432 4.66682784 1.22227595 7 2 C8.49341703 4.98683407 8.13175178 7.74399774 8.125 11.0625 C8.12757813 12.33222656 8.13015625 13.60195313 8.1328125 14.91015625 C8 18 8 18 7 19 C6.63239269 21.32817964 6.29758419 23.6618385 6 26 C5.34 26 4.68 26 4 26 C4.144375 24.80375 4.28875 23.6075 4.4375 22.375 C5.1590461 15.93262415 5.56763736 9.46704116 6 3 C4.02 3.33 2.04 3.66 0 4 C0 2.68 0 1.36 0 0 Z " fill="#050C20" transform="translate(288,412)"/>
<path d="M0 0 C-0.33 1.65 -0.66 3.3 -1 5 C-7.75 6 -7.75 6 -10 6 C-10.61875 6.350625 -11.2375 6.70125 -11.875 7.0625 C-14.40445022 8.17843392 -15.44980222 7.91078492 -18 7 C-15.38056097 4.38056097 -12.42526027 3.55802162 -9 2.375 C-8.03707031 2.03082031 -8.03707031 2.03082031 -7.0546875 1.6796875 C-2.27557664 0 -2.27557664 0 0 0 Z " fill="#7EAADD" transform="translate(290,416)"/>
<path d="M0 0 C4.29 0 8.58 0 13 0 C9.83724506 2.10850329 6.86528462 3.28830876 3.3125 4.625 C2.13300781 5.07101562 0.95351563 5.51703125 -0.26171875 5.9765625 C-1.16535156 6.31429688 -2.06898438 6.65203125 -3 7 C-3.33 6.01 -3.66 5.02 -4 4 C-2.68 4 -1.36 4 0 4 C0 2.68 0 1.36 0 0 Z " fill="#84ACD9" transform="translate(260,444)"/>
<path d="M0 0 C9.24 0 18.48 0 28 0 C27.01 0.33 26.02 0.66 25 1 C25 1.66 25 2.32 25 3 C20.05 2.67 15.1 2.34 10 2 C10 2.66 10 3.32 10 4 C7.03 3.67 4.06 3.34 1 3 C0.67 2.01 0.34 1.02 0 0 Z " fill="#A8A7AB" transform="translate(242,281)"/>
<path d="M0 0 C1.09248047 0.00193359 1.09248047 0.00193359 2.20703125 0.00390625 C7.59351504 0.09351504 7.59351504 0.09351504 9.875 2.375 C4.265 2.375 -1.345 2.375 -7.125 2.375 C-7.785 4.355 -8.445 6.335 -9.125 8.375 C-11.25 9.75 -11.25 9.75 -13.125 10.375 C-12.82835013 7.11185141 -12.49414223 4.89779535 -10.5859375 2.1953125 C-7.16734634 -0.33335969 -4.0785257 -0.1386261 0 0 Z " fill="#1C1C1C" transform="translate(280.125,175.625)"/>
<path d="M0 0 C0.66 0 1.32 0 2 0 C2 5.94 2 11.88 2 18 C1.67 16.68 1.34 15.36 1 14 C0.34 14 -0.32 14 -1 14 C-1.02685938 11.85423363 -1.04633088 9.70837355 -1.0625 7.5625 C-1.07410156 6.36753906 -1.08570313 5.17257812 -1.09765625 3.94140625 C-1 1 -1 1 0 0 Z " fill="#182230" transform="translate(219,405)"/>
<path d="M0 0 C1.65 0 3.3 0 5 0 C5.33 0.66 5.66 1.32 6 2 C4.23141309 2.67260351 2.46003984 3.33788395 0.6875 4 C-0.29863281 4.37125 -1.28476563 4.7425 -2.30078125 5.125 C-5 6 -5 6 -8 6 C-8 4.35 -8 2.7 -8 1 C-5.36 1.33 -2.72 1.66 0 2 C0 1.34 0 0.68 0 0 Z " fill="#B1CDEC" transform="translate(248,450)"/>
<path d="M0 0 C0.89203125 0.01804687 1.7840625 0.03609375 2.703125 0.0546875 C3.71632813 0.08949219 3.71632813 0.08949219 4.75 0.125 C1.87921701 2.03885532 -0.58411656 3.08932952 -3.8125 4.25 C-4.78316406 4.60320312 -5.75382812 4.95640625 -6.75390625 5.3203125 C-9.25 6.125 -9.25 6.125 -11.25 6.125 C-11.25 5.465 -11.25 4.805 -11.25 4.125 C-10.59 4.125 -9.93 4.125 -9.25 4.125 C-9.25 3.465 -9.25 2.805 -9.25 2.125 C-6.03817851 0.21891902 -3.71117397 -0.09766247 0 0 Z " fill="#060A20" transform="translate(283.25,415.875)"/>
<path d="M0 0 C1.65 0 3.3 0 5 0 C5.33 1.32 5.66 2.64 6 4 C7.32 4 8.64 4 10 4 C10.66 4 11.32 4 12 4 C12.33 3.34 12.66 2.68 13 2 C13.33 2.99 13.66 3.98 14 5 C12.75 6.5625 12.75 6.5625 11 8 C7.63075714 7.59990241 5.74668656 6.21927694 3.25 4 C2.63640625 3.46375 2.0228125 2.9275 1.390625 2.375 C0.93171875 1.92125 0.4728125 1.4675 0 1 C0 0.67 0 0.34 0 0 Z " fill="#88A9D4" transform="translate(248,482)"/>
<path d="M0 0 C0.33 0 0.66 0 1 0 C1.19747219 1.39445749 1.38248587 2.79068152 1.5625 4.1875 C1.66691406 4.96480469 1.77132812 5.74210937 1.87890625 6.54296875 C2 9 2 9 1 14 C-2.63 13.34 -6.26 12.68 -10 12 C-10 11.67 -10 11.34 -10 11 C-9.43410156 10.86722656 -8.86820313 10.73445313 -8.28515625 10.59765625 C-7.18494141 10.33275391 -7.18494141 10.33275391 -6.0625 10.0625 C-5.33160156 9.88847656 -4.60070312 9.71445312 -3.84765625 9.53515625 C-2.00030102 9.16112431 -2.00030102 9.16112431 -1 8 C-0.76924918 6.65252916 -0.58846937 5.29622435 -0.4375 3.9375 C-0.293125 2.638125 -0.14875 1.33875 0 0 Z " fill="#B3B3B6" transform="translate(142,256)"/>
<path d="M0 0 C0 0.66 0 1.32 0 2 C0.94875 2.28875 1.8975 2.5775 2.875 2.875 C6 4 6 4 8 6 C7.67 6.66 7.34 7.32 7 8 C6.34 8 5.68 8 5 8 C4.34 7.34 3.68 6.68 3 6 C1.68252676 5.30251417 0.35085807 4.63040043 -1 4 C-1.33 4.66 -1.66 5.32 -2 6 C-2.66 5.34 -3.32 4.68 -4 4 C-4.66 3.67 -5.32 3.34 -6 3 C-3.375 0 -3.375 0 0 0 Z " fill="#B7B7B7" transform="translate(304,263)"/>
<path d="M0 0 C0.33 0 0.66 0 1 0 C1.13277344 1.16917969 1.26554688 2.33835937 1.40234375 3.54296875 C1.58062013 5.09115839 1.75901161 6.63933478 1.9375 8.1875 C2.02451172 8.95642578 2.11152344 9.72535156 2.20117188 10.51757812 C2.64964421 14.38772828 3.1529001 18.19186624 4 22 C3.01 21.67 2.02 21.34 1 21 C-2.0553135 14.43731132 -0.8672623 6.92637866 0 0 Z " fill="#8E8C91" transform="translate(189,311)"/>
<path d="M0 0 C-0.33 2.31 -0.66 4.62 -1 7 C-2.32 7.33 -3.64 7.66 -5 8 C-5 6.35 -5 4.7 -5 3 C-5.66 2.67 -6.32 2.34 -7 2 C-4.35261084 0.5393715 -3.10551666 0 0 0 Z " fill="#ACABAC" transform="translate(308,316)"/>
<path d="M0 0 C0 1.32 0 2.64 0 4 C-2.8125 5.125 -2.8125 5.125 -6 6 C-6.99 5.34 -7.98 4.68 -9 4 C-9 3.34 -9 2.68 -9 2 C-5.62902617 0.50178941 -3.79557881 0 0 0 Z " fill="#A4C5E6" transform="translate(262,427)"/>
<path d="M0 0 C0.33 0 0.66 0 1 0 C1 6.27 1 12.54 1 19 C2.32 19.66 3.64 20.32 5 21 C3.35 21.66 1.7 22.32 0 23 C0 15.41 0 7.82 0 0 Z " fill="#B0B0B0" transform="translate(213,128)"/>
<path d="M0 0 C4.4030087 1.34536377 6.471564 3.16052312 9 7 C9 7.99 9 8.98 9 10 C8.34 10 7.68 10 7 10 C6.79375 9.4225 6.5875 8.845 6.375 8.25 C4.50249112 5.18589456 2.03041481 3.84460032 -1 2 C-0.67 1.34 -0.34 0.68 0 0 Z " fill="#E2E2E2" transform="translate(187,119)"/>
<path d="M0 0 C2.64 0 5.28 0 8 0 C5.12921701 1.91385532 2.66588344 2.96432952 -0.5625 4.125 C-1.53316406 4.47820312 -2.50382813 4.83140625 -3.50390625 5.1953125 C-6 6 -6 6 -8 6 C-8.33 6.66 -8.66 7.32 -9 8 C-8.67 6.68 -8.34 5.36 -8 4 C-6.68 4 -5.36 4 -4 4 C-4 3.34 -4 2.68 -4 2 C-2.68 2 -1.36 2 0 2 C0 1.34 0 0.68 0 0 Z " fill="#061124" transform="translate(250,468)"/>
<path d="M0 0 C0 0.33 0 0.66 0 1 C-1.60256108 1.50512244 -3.20711792 2.00391627 -4.8125 2.5 C-6.15248047 2.91765625 -6.15248047 2.91765625 -7.51953125 3.34375 C-10 4 -10 4 -13 4 C-12.67 2.68 -12.34 1.36 -12 0 C-7.91556885 -1.53166168 -4.20544343 -0.63081652 0 0 Z " fill="#C7C7CA" transform="translate(141,101)"/>
<path d="M0 0 C3 3.625 3 3.625 3 7 C4.98 7 6.96 7 9 7 C8.67 7.66 8.34 8.32 8 9 C4.9375 9.625 4.9375 9.625 2 10 C-0.4294516 6.3558226 -0.16179575 4.28758728 0 0 Z " fill="#080E16" transform="translate(228,453)"/>
<path d="M0 0 C0 0.66 0 1.32 0 2 C-0.56589844 2.10957031 -1.13179687 2.21914063 -1.71484375 2.33203125 C-2.81505859 2.56986328 -2.81505859 2.56986328 -3.9375 2.8125 C-4.66839844 2.96332031 -5.39929688 3.11414063 -6.15234375 3.26953125 C-7.06693359 3.63111328 -7.06693359 3.63111328 -8 4 C-8.33 4.99 -8.66 5.98 -9 7 C-11.64 6.67 -14.28 6.34 -17 6 C-13.87247409 4.35471386 -10.6946943 3.08297501 -7.375 1.875 C-6.41335937 1.52179688 -5.45171875 1.16859375 -4.4609375 0.8046875 C-2 0 -2 0 0 0 Z " fill="#212C3D" transform="translate(248,454)"/>
<path d="M0 0 C-4.625 3 -4.625 3 -8 3 C-8 3.66 -8 4.32 -8 5 C-10.375 5.625 -10.375 5.625 -13 6 C-13.66 5.34 -14.32 4.68 -15 4 C-12.87875034 3.13656176 -10.75286928 2.28449352 -8.625 1.4375 C-6.84996094 0.72400391 -6.84996094 0.72400391 -5.0390625 -0.00390625 C-2 -1 -2 -1 0 0 Z " fill="#9BB7D6" transform="translate(247,433)"/>
<path d="M0 0 C0.33 0 0.66 0 1 0 C1 3.96 1 7.92 1 12 C1.66 12.33 2.32 12.66 3 13 C2.67 13.66 2.34 14.32 2 15 C3.65 14.67 5.3 14.34 7 14 C5 16 5 16 0 17 C0 11.39 0 5.78 0 0 Z " fill="#B6C9DD" transform="translate(221,406)"/>
<path d="M0 0 C3.87051275 3.07881696 7.02911382 6.00073014 10 10 C8.68 10 7.36 10 6 10 C6 9.34 6 8.68 6 8 C4.68 7.34 3.36 6.68 2 6 C2 5.34 2 4.68 2 4 C1.34 4 0.68 4 0 4 C0 2.68 0 1.36 0 0 Z " fill="#131B34" transform="translate(246,480)"/>
<path d="M0 0 C-2.31 1.32 -4.62 2.64 -7 4 C-7 4.33 -7 4.66 -7 5 C-9.97 5 -12.94 5 -16 5 C-13.13879225 3.09252817 -10.64745007 1.99646294 -7.4375 0.8125 C-6.46683594 0.44769531 -5.49617188 0.08289063 -4.49609375 -0.29296875 C-2 -1 -2 -1 0 0 Z " fill="#16263F" transform="translate(286,441)"/>
<path d="M0 0 C-2.36253009 2.36253009 -4.31227271 3.037848 -7.4375 4.1875 C-8.40558594 4.55230469 -9.37367188 4.91710937 -10.37109375 5.29296875 C-13 6 -13 6 -16 5 C-16 4.67 -16 4.34 -16 4 C-15.0925 3.71125 -14.185 3.4225 -13.25 3.125 C-10.13817857 2.15591492 -10.13817857 2.15591492 -8 0.875 C-5.28586617 -0.31243355 -2.92578787 -0.13299036 0 0 Z " fill="#091023" transform="translate(266,424)"/>
<path d="M0 0 C-0.33 1.32 -0.66 2.64 -1 4 C-3.78823655 5.0326802 -4.8677274 5.04509293 -7.75 4.0625 C-8.4925 3.711875 -9.235 3.36125 -10 3 C-7.28464405 0.28464405 -3.67870689 -1.83935344 0 0 Z " fill="#9A989D" transform="translate(298,321)"/>
<path d="M0 0 C0.33 1.32 0.66 2.64 1 4 C-2.3 4.33 -5.6 4.66 -9 5 C-7 1 -7 1 -4.5 -0.3125 C-2 -1 -2 -1 0 0 Z " fill="#C3C2C7" transform="translate(249,106)"/>
<path d="M0 0 C-1.07401108 2.91517292 -1.77810176 4.77810176 -4 7 C-5.65 5.68 -7.3 4.36 -9 3 C-2.25 0 -2.25 0 0 0 Z " fill="#7E94B8" transform="translate(283,459)"/>
<path d="M0 0 C0.66 0 1.32 0 2 0 C1.5205537 4.21912747 0.83374881 6.79663178 -2 10 C-2.33 7.69 -2.66 5.38 -3 3 C-2.01 2.67 -1.02 2.34 0 2 C0 1.34 0 0.68 0 0 Z " fill="#A1A0A3" transform="translate(304,324)"/>
<path d="M0 0 C0.99 0 1.98 0 3 0 C3 0.66 3 1.32 3 2 C3.66 2.33 4.32 2.66 5 3 C0.05 4.485 0.05 4.485 -5 6 C-5 5.34 -5 4.68 -5 4 C-4.01 4 -3.02 4 -2 4 C-1.34 2.68 -0.68 1.36 0 0 Z " fill="#0B0E20" transform="translate(245,428)"/>
<path d="M0 0 C0 0.99 0 1.98 0 3 C-1.27875 3.144375 -2.5575 3.28875 -3.875 3.4375 C-6.25692894 3.70642746 -7.84452691 3.92226346 -10 5 C-10.66 4.34 -11.32 3.68 -12 3 C-10.75336669 2.49166409 -9.50250613 1.99368855 -8.25 1.5 C-7.55390625 1.2215625 -6.8578125 0.943125 -6.140625 0.65625 C-4 0 -4 0 0 0 Z " fill="#182133" transform="translate(240,417)"/>
<path d="M0 0 C1.32 0 2.64 0 4 0 C3.34 2.31 2.68 4.62 2 7 C1.01 7 0.02 7 -1 7 C-1.625 5.1875 -1.625 5.1875 -2 3 C-1.34 2.01 -0.68 1.02 0 0 Z " fill="#85B5E6" transform="translate(266,474)"/>
<path d="M0 0 C2.38564077 0.57584432 4.66682784 1.22227595 7 2 C7 4.97 7 7.94 7 11 C6.67 11 6.34 11 6 11 C6 8.36 6 5.72 6 3 C4.02 3.33 2.04 3.66 0 4 C0 2.68 0 1.36 0 0 Z " fill="#101426" transform="translate(288,412)"/>
<path d="M0 0 C1.98 1.65 3.96 3.3 6 5 C5.67 5.99 5.34 6.98 5 8 C4.34 8 3.68 8 3 8 C3 7.34 3 6.68 3 6 C2.01 6 1.02 6 0 6 C-1 3 -1 3 0 0 Z " fill="#BFBFC1" transform="translate(121,259)"/>
<path d="M0 0 C0.598125 0.20625 1.19625 0.4125 1.8125 0.625 C-1.80078125 5.3125 -1.80078125 5.3125 -3.1875 6.625 C-4.1775 6.625 -5.1675 6.625 -6.1875 6.625 C-5.875 4.25 -5.875 4.25 -5.1875 1.625 C-2.1875 -0.375 -2.1875 -0.375 0 0 Z " fill="#E6E6E6" transform="translate(306.1875,199.375)"/>
<path d="M0 0 C0 0.66 0 1.32 0 2 C-1.24176695 2.70226141 -2.49385599 3.38629109 -3.75 4.0625 C-4.79414063 4.63677734 -4.79414063 4.63677734 -5.859375 5.22265625 C-8.36140628 6.1312406 -9.5332355 5.88336837 -12 5 C-9.9330412 2.9330412 -8.69369158 2.35542451 -6 1.375 C-5.29875 1.11460937 -4.5975 0.85421875 -3.875 0.5859375 C-2 0 -2 0 0 0 Z " fill="#7A9DC4" transform="translate(284,418)"/>
<path d="M0 0 C0 1.32 0 2.64 0 4 C-3.63 4 -7.26 4 -11 4 C-7.61125486 1.74083657 -4.15175481 0 0 0 Z " fill="#80A0CB" transform="translate(260,468)"/>
<path d="M0 0 C2.95183101 2.95183101 3.08663988 5.95511947 4 10 C2.68 9.67 1.36 9.34 0 9 C0 6.03 0 3.06 0 0 Z " fill="#0D1524" transform="translate(224,443)"/>
<path d="M0 0 C0.99 0 1.98 0 3 0 C2.67 1.65 2.34 3.3 2 5 C0.02 5.66 -1.96 6.32 -4 7 C-4 6.01 -4 5.02 -4 4 C-2.68 4 -1.36 4 0 4 C0 2.68 0 1.36 0 0 Z " fill="#96B8E1" transform="translate(260,444)"/>
<path d="M0 0 C-3.67259383 2.44839588 -6.54648201 4 -11 4 C-10.67 3.01 -10.34 2.02 -10 1 C-6.78548731 -0.60725635 -3.56387464 -0.05748185 0 0 Z " fill="#0D1524" transform="translate(240,434)"/>
<path d="M0 0 C1.04449911 3.13349732 0.93423645 3.98968256 0 7 C-0.66 7 -1.32 7 -2 7 C-2 7.66 -2 8.32 -2 9 C-3.32 9.33 -4.64 9.66 -6 10 C-4.02 6.7 -2.04 3.4 0 0 Z " fill="#0C152E" transform="translate(282,461)"/>
<path d="M0 0 C2.97 0 5.94 0 9 0 C8 2 8 2 6.15234375 2.6328125 C5.42144531 2.79523438 4.69054687 2.95765625 3.9375 3.125 C2.83728516 3.37636719 2.83728516 3.37636719 1.71484375 3.6328125 C1.14894531 3.75398438 0.58304687 3.87515625 0 4 C0 2.68 0 1.36 0 0 Z " fill="#B5C4D8" transform="translate(256,406)"/>
<path d="M0 0 C0.99 0 1.98 0 3 0 C2.67 1.98 2.34 3.96 2 6 C1.01 6.33 0.02 6.66 -1 7 C-1.625 5.1875 -1.625 5.1875 -2 3 C-1.34 2.01 -0.68 1.02 0 0 Z " fill="#A7A5AA" transform="translate(298,319)"/>
<path d="M0 0 C0.66 0.33 1.32 0.66 2 1 C0.02 3.97 0.02 3.97 -2 7 C-3.32 6.34 -4.64 5.68 -6 5 C-5.195625 4.360625 -4.39125 3.72125 -3.5625 3.0625 C-1.7249496 1.59396498 -1.7249496 1.59396498 0 0 Z " fill="#E9E9E9" transform="translate(230,160)"/>
<path d="M0 0 C3.3 0 6.6 0 10 0 C7.23776722 2.76223278 4.79293383 2.57856291 1 3 C0.67 2.01 0.34 1.02 0 0 Z " fill="#B5CBE3" transform="translate(230,456)"/>
<path d="M0 0 C0.66 0.99 1.32 1.98 2 3 C1.34 3.66 0.68 4.32 0 5 C-3.625 4.625 -3.625 4.625 -7 4 C-4.61426621 2.10786631 -2.92824652 0.97608217 0 0 Z " fill="#ABCBEE" transform="translate(246,433)"/>
<path d="M0 0 C-0.33 0.99 -0.66 1.98 -1 3 C-3.91482778 3.80967438 -5.46113217 4.21845993 -8.3125 3.0625 C-8.869375 2.711875 -9.42625 2.36125 -10 2 C-8.71211992 1.46987262 -7.41953322 0.9511671 -6.125 0.4375 C-5.40570313 0.14746094 -4.68640625 -0.14257812 -3.9453125 -0.44140625 C-2 -1 -2 -1 0 0 Z " fill="#131C30" transform="translate(262,409)"/>
<path d="M0 0 C0.66 0.33 1.32 0.66 2 1 C1.34 2.65 0.68 4.3 0 6 C-2.475 5.01 -2.475 5.01 -5 4 C-3.36587557 2.29159719 -2.13093906 1.06546953 0 0 Z " fill="#E0E0E0" transform="translate(326,119)"/>
<path d="M0 0 C1.32 0.33 2.64 0.66 4 1 C5.25 3.5625 5.25 3.5625 6 6 C5.01 6.66 4.02 7.32 3 8 C2.01 5.36 1.02 2.72 0 0 Z " fill="#BEBEC0" transform="translate(208,114)"/>
<path d="M0 0 C1.32 0 2.64 0 4 0 C3.8125 1.875 3.8125 1.875 3 4 C0.4375 5.25 0.4375 5.25 -2 6 C-1.125 1.125 -1.125 1.125 0 0 Z " fill="#EEEEEE" transform="translate(321,123)"/>
<path d="M0 0 C1.67542976 0.28604898 3.34385343 0.61781233 5 1 C3.02 1.99 3.02 1.99 1 3 C1 3.99 1 4.98 1 6 C-0.32 5.67 -1.64 5.34 -3 5 C-1.125 1.125 -1.125 1.125 0 0 Z " fill="#B9B9BA" transform="translate(101,76)"/>
<path d="M0 0 C2.64 0 5.28 0 8 0 C5.3144406 2.6855594 2.62378672 3.06049974 -1 4 C-0.67 2.68 -0.34 1.36 0 0 Z " fill="#0C152E" transform="translate(271,460)"/>
<path d="M0 0 C0.66 0.66 1.32 1.32 2 2 C1.67 2.66 1.34 3.32 1 4 C-1.31 4 -3.62 4 -6 4 C-3.94766315 1.7522025 -2.99332739 0.9977758 0 0 Z " fill="#03091A" transform="translate(291,438)"/>
<path d="M0 0 C-0.33 1.65 -0.66 3.3 -1 5 C-4.875 3.25 -4.875 3.25 -6 1 C-3 0 -3 0 0 0 Z " fill="#C7C6CA" transform="translate(276,280)"/>
<path d="M0 0 C0 1.65 0 3.3 0 5 C-1.65 5 -3.3 5 -5 5 C-5.33 5.66 -5.66 6.32 -6 7 C-6.66 6.34 -7.32 5.68 -8 5 C-6.8562364 4.16382818 -5.70992861 3.33113541 -4.5625 2.5 C-3.92441406 2.0359375 -3.28632813 1.571875 -2.62890625 1.09375 C-1 0 -1 0 0 0 Z " fill="#B8B8BA" transform="translate(391,263)"/>
<path d="M0 0 C0.185625 0.9590625 0.185625 0.9590625 0.375 1.9375 C0.684375 2.9584375 0.684375 2.9584375 1 4 C1.66 4.33 2.32 4.66 3 5 C-0.75 8 -0.75 8 -3 8 C-1.125 2.25 -1.125 2.25 0 0 Z " fill="#151516" transform="translate(121,114)"/>
<path d="M0 0 C0.66 0.33 1.32 0.66 2 1 C1.01 1.33 0.02 1.66 -1 2 C-1.73323796 4.01508358 -1.73323796 4.01508358 -2 6 C-2.99 5.34 -3.98 4.68 -5 4 C-5 3.34 -5 2.68 -5 2 C-2.625 0.9375 -2.625 0.9375 0 0 Z " fill="#90A8C1" transform="translate(247,472)"/>
<path d="M0 0 C0.33 0.66 0.66 1.32 1 2 C-1.3125 2.6875 -1.3125 2.6875 -4 3 C-5.8125 1.5625 -5.8125 1.5625 -7 0 C-3.88407501 -1.03864166 -2.9737344 -1.09036928 0 0 Z " fill="#A0BFE5" transform="translate(255,409)"/>
<path d="M0 0 C2.475 0.495 2.475 0.495 5 1 C5 2.98 5 4.96 5 7 C3.29115995 5.37660195 1.62553283 3.70680947 0 2 C0 1.34 0 0.68 0 0 Z " fill="#9C9A9F" transform="translate(210,330)"/>
<path d="M0 0 C2.475 0.495 2.475 0.495 5 1 C5 1.99 5 2.98 5 4 C4.01 4 3.02 4 2 4 C1.34 4.66 0.68 5.32 0 6 C0 4.02 0 2.04 0 0 Z " fill="#9D9D9D" transform="translate(207,316)"/>
<path d="M0 0 C0.66 0.99 1.32 1.98 2 3 C0.35 3.66 -1.3 4.32 -3 5 C-3.66 4.34 -4.32 3.68 -5 3 C-3.35 2.01 -1.7 1.02 0 0 Z " fill="#BAB9BD" transform="translate(291,272)"/>
<path d="M0 0 C0.99 0 1.98 0 3 0 C2.67 2.64 2.34 5.28 2 8 C1.01 7.67 0.02 7.34 -1 7 C-0.67 4.69 -0.34 2.38 0 0 Z " fill="#DFDFDF" transform="translate(317,232)"/>
<path d="M0 0 C0.66 0.33 1.32 0.66 2 1 C1.34 2.65 0.68 4.3 0 6 C-1.65 6 -3.3 6 -5 6 C-3.35 4.02 -1.7 2.04 0 0 Z " fill="#272727" transform="translate(180,161)"/>
<path d="M0 0 C0.66 0.33 1.32 0.66 2 1 C0.54744301 4.82946843 -1.42895561 6.12050295 -5 8 C-3.8141763 4.62496331 -2.72426311 2.35277269 0 0 Z " fill="#1A1A1A" transform="translate(238,115)"/>
<path d="M0 0 C2.64 0 5.28 0 8 0 C5.23776722 2.76223278 2.79293383 2.57856291 -1 3 C-0.67 2.01 -0.34 1.02 0 0 Z " fill="#B4D2ED" transform="translate(224,418)"/>
<path d="M0 0 C2.31 0 4.62 0 7 0 C7 1.32 7 2.64 7 4 C3.73045798 3.43628586 2.17424117 2.50037734 0 0 Z " fill="#A19FA2" transform="translate(80,341)"/>
<path d="M0 0 C2.97 0.495 2.97 0.495 6 1 C6 1.66 6 2.32 6 3 C3 4 3 4 0 3 C0 2.01 0 1.02 0 0 Z " fill="#A4A2A6" transform="translate(220,322)"/>
<path d="M0 0 C-0.33 1.32 -0.66 2.64 -1 4 C-3.97 3.505 -3.97 3.505 -7 3 C-5.40442685 -0.19114631 -3.35905282 0 0 0 Z " fill="#828282" transform="translate(308,316)"/>
<path d="M0 0 C1.9375 0.375 1.9375 0.375 4 1 C4.33 1.66 4.66 2.32 5 3 C0.545 3.495 0.545 3.495 -4 4 C-2.68 3.67 -1.36 3.34 0 3 C0 2.01 0 1.02 0 0 Z " fill="#A3A2A4" transform="translate(272,306)"/>
<path d="M0 0 C2.5654594 2.5654594 2.54046087 4.47686668 3 8 C2.01 8.495 2.01 8.495 1 9 C-0.53846154 4.38461538 -0.53846154 4.38461538 -1 2 C-0.67 1.34 -0.34 0.68 0 0 Z " fill="#BFBFC3" transform="translate(116,246)"/>
<path d="M0 0 C2.375 -0.1875 2.375 -0.1875 5 0 C5.66 0.99 6.32 1.98 7 3 C3 3 3 3 0 2 C0 1.34 0 0.68 0 0 Z " fill="#121212" transform="translate(203,200)"/>
<path d="M0 0 C0.66 0 1.32 0 2 0 C2.33 0.66 2.66 1.32 3 2 C3.66 1.67 4.32 1.34 5 1 C5.33 1.99 5.66 2.98 6 4 C5.01 4.66 4.02 5.32 3 6 C0 2.25 0 2.25 0 0 Z " fill="#BDBDBD" transform="translate(202,105)"/>
<path d="M0 0 C0.99 0.33 1.98 0.66 3 1 C1.35 2.65 -0.3 4.3 -2 6 C-2.33 5.34 -2.66 4.68 -3 4 C-2.01 2.68 -1.02 1.36 0 0 Z " fill="#BABABC" transform="translate(311,105)"/>
</svg>
